<?xml version="1.0" encoding="UTF-8" standalone="no"?>
<svg
   fill="none"
   height="128"
   viewBox="0 0 208 128"
   width="208"
   version="1.1"
   id="svg20"
   sodipodi:docname="markdown-mark.svg"
   inkscape:version="1.2.1 (9c6d41e410, 2022-07-14)"
   xmlns:inkscape="http://www.inkscape.org/namespaces/inkscape"
   xmlns:sodipodi="http://sodipodi.sourceforge.net/DTD/sodipodi-0.dtd"
   xmlns="http://www.w3.org/2000/svg"
   xmlns:svg="http://www.w3.org/2000/svg">
  <defs
     id="defs24">
    <rect
       x="112.65225"
       y="106.24958"
       width="86.695507"
       height="79.427621"
       id="rect1373" />
    <rect
       x="24.839332"
       y="35.362398"
       width="22.589012"
       height="15.191637"
       id="rect1317" />
    <rect
       x="17.252935"
       y="37.809623"
       width="50.779915"
       height="72.315493"
       id="rect915" />
  </defs>
  <sodipodi:namedview
     id="namedview22"
     pagecolor="#ffffff"
     bordercolor="#999999"
     borderopacity="1"
     inkscape:showpageshadow="0"
     inkscape:pageopacity="0"
     inkscape:pagecheckerboard="0"
     inkscape:deskcolor="#d1d1d1"
     showgrid="false"
     inkscape:zoom="2.8894231"
     inkscape:cx="7.4409318"
     inkscape:cy="20.073211"
     inkscape:window-width="3440"
     inkscape:window-height="1369"
     inkscape:window-x="1912"
     inkscape:window-y="-8"
     inkscape:window-maximized="1"
     inkscape:current-layer="svg20" />
  <g
     fill="#000"
     id="g18">
    <path
       clip-rule="evenodd"
       d="m 15,10 c -2.7614,0 -5,2.2386 -5,5 v 98 c 0,2.761 2.2386,5 5,5 h 178 c 2.761,0 5,-2.239 5,-5 V 15 c 0,-2.7614 -2.239,-5 -5,-5 z M 0,15 C 0,6.71573 6.71573,0 15,0 h 178 c 8.284,0 15,6.71573 15,15 v 98 c 0,8.284 -6.716,15 -15,15 H 15 C 6.71573,128 0,121.284 0,113 Z"
       fill-rule="evenodd"
       id="path14"
       style="display:inline" />
    <path
       d="M 92.404233,83.806096 V 39.855211 h 12.926727 l 12.92674,16.158414 12.92673,-16.158414 h 12.92673 V 83.806096 H 131.18443 V 58.598971 L 118.2577,74.757384 105.33096,58.598971 v 25.207125 z m 80.792067,0 -19.39009,-21.329106 h 12.92673 V 39.855211 h 12.92673 V 62.47699 h 12.92673 z"
       id="path16"
       style="display:inline;stroke-width:0.646337" />
    <path
       d="M 29.700852,83.767869 V 39.816984 h 12.926733 l 12.92674,16.158414 12.92673,-16.158414 h 12.92673 V 83.767869 H 68.481055 V 58.560744 L 55.554325,74.719157 42.627585,58.560744 v 25.207125 z"
       id="path16-4"
       style="display:none;stroke-width:0.646337"
       sodipodi:nodetypes="ccccccccccccc" />
    <path
       d="m 75.675405,43.537217 v 24.702132 c 0,2.637746 -0.654866,5.025973 -1.964596,7.164686 -1.309731,2.103064 -3.317984,3.778391 -6.024765,5.025974 -2.70678,1.211938 -6.112077,1.817905 -10.215902,1.817905 -5.850133,0 -10.281387,-1.283227 -13.293769,-3.849681 -3.012377,-2.602102 -4.518568,-6.024041 -4.518568,-10.265822 V 43.537217 h 5.893789 v 26.369455 c 0,3.101132 1.004124,5.507181 3.012377,7.218153 2.051915,1.710972 5.129782,2.566458 9.233606,2.566458 4.234795,0 7.290834,-0.908957 9.168117,-2.726862 1.920939,-1.853549 2.881407,-4.223954 2.881407,-7.111215 V 43.537217 Z"
       id="path1377"
       style="font-size:12.3453px;-inkscape-font-specification:'sans-serif, Normal';white-space:pre;shape-inside:url(#rect1317);fill:#ffffff;stroke:#000000;stroke-width:9.05789"
       sodipodi:nodetypes="csccscsccscscscc" />
  </g>
  <tspan
     sodipodi:role="line"
     id="tspan917"
     style="font-style:normal;font-variant:normal;font-weight:bold;font-stretch:normal;font-size:12px;font-family:sans-serif;-inkscape-font-specification:'sans-serif, Bold';font-variant-ligatures:normal;font-variant-caps:normal;font-variant-numeric:normal;font-variant-east-asian:normal;white-space:pre;shape-inside:url(#rect915);fill:#000000;fill-opacity:1;stroke:#000000;stroke-width:1.88976"
     transform="matrix(5.6889968,0,0,4.3514657,-71.890728,-130.34151)">U</tspan>
  <text
     xml:space="preserve"
     id="text913"
     style="font-style:normal;font-variant:normal;font-weight:bold;font-stretch:normal;font-size:12px;font-family:sans-serif;-inkscape-font-specification:'sans-serif, Bold';font-variant-ligatures:normal;font-variant-caps:normal;font-variant-numeric:normal;font-variant-east-asian:normal;white-space:pre;shape-inside:url(#rect915);fill:#000000;fill-opacity:1;stroke:#000000;stroke-width:1.88976"
     transform="matrix(5.6889968,0,0,4.3514657,-71.890728,-130.34151)" />
  <g
     aria-label="U"
     transform="matrix(5.228448,0,0,4.2688721,-95.766795,-117.13257)"
     id="text1315"
     style="font-size:12.3453px;-inkscape-font-specification:'sans-serif, Normal';white-space:pre;shape-inside:url(#rect1317);fill:#ffffff;stroke:#000000;stroke-width:1.88976" />
</svg>
