<svg version="1.1" xmlns="http://www.w3.org/2000/svg" viewBox="403.8 158.4 2833.3 1163.5">
<rect x="403.8" y="158.4" width="2833.3" height="1163.5" fill="#202124" />
<polyline points="471.3 213.6,471.3 215.8,472.4 257.6,472.4 263.1,473.5 268.6,475.7 278.5,475.7 284.0,476.8 289.5,476.8 295.0,477.9 300.5,479.0 304.9,479.0 310.4,480.1 314.8,480.1 319.2,481.2 324.7,482.3 329.1,483.4 332.4,485.6 341.2,485.6 344.5,486.7 348.9,487.8 352.2,487.8 356.6,488.9 359.9,488.9 363.2,490.0 366.5,491.1 370.9,491.1 374.2,492.2 376.4,493.3 383.0,493.3 386.3,494.4 392.9,494.4 396.2,495.5 399.5,495.5 402.8,496.6 409.4,496.6 412.7,497.7 438.0,497.7 440.2,498.8 454.5,501.0 454.5,515.3 455.6,519.7 455.6,546.1 456.7,553.8 456.7,666.0 456.7,714.4 455.6,738.6 454.5,750.7 454.5,762.8 453.4,773.8 453.4,785.9 452.3,806.8 451.2,817.8 450.1,826.6 450.1,845.3 449.0,854.1 449.0,880.5 447.9,888.2 447.9,934.4 446.8,939.9 446.8,1014.7 444.6,1014.7 441.3,1015.8 434.7,1015.8 430.3,1016.9 421.5,1016.9 416.0,1018.0 410.5,1018.0 405.0,1016.9 358.8,1016.9 354.4,1015.8 350.0,1013.6 342.3,1012.5 337.9,1012.5 334.6,1011.4 331.3,1010.3 324.7,1009.2 321.4,1009.2 318.1,1008.1 315.9,1007.0 312.6,1007.0 310.4,1005.9 308.2,1005.9 306.0,1004.8 303.8,1004.8 301.6,1003.7 297.2,1002.6 295.0,1002.6 291.7,1001.5 281.8,1001.5 278.5,1000.4 265.3,1000.4 262.0,999.3 253.2,999.3 251.0,998.2 236.7,998.2 234.5,997.1 200.4,994.9 200.4,954.2 201.5,948.7 201.5,937.7 202.6,932.2 202.6,916.8 203.7,911.3 203.7,905.8 204.8,900.3 204.8,887.1 205.9,880.5 205.9,873.9 207.0,866.2 207.0,851.9 208.1,837.6 208.1,822.2 209.2,814.5 209.2,799.1 210.3,792.5 211.4,784.8 211.4,778.2 212.5,770.5 213.6,763.9 214.7,744.1 216.9,738.6 218.0,732.0 219.1,726.5 220.2,719.9 221.3,714.4 221.3,708.9 222.4,702.3 223.5,696.8 223.5,691.3 224.6,685.8 224.6,680.3 225.7,675.9 225.7,670.4 226.8,667.1 226.8,652.8 227.9,648.4 227.9,624.2 229.0,619.8 229.0,565.9 227.9,562.6 227.9,552.7 226.8,549.4 226.8,543.9 225.7,541.7 225.7,536.2 224.6,534.0 224.6,531.8 223.5,529.6 223.5,524.1 222.4,521.9 222.4,515.3 221.3,513.1 220.2,510.9 220.2,507.6 219.1,505.4 219.1,503.2 218.0,501.0 218.0,496.6 216.9,494.4 216.9,490.0 215.8,487.8 214.7,490.0 214.7,493.3 213.6" style="fill:none;stroke:#ffffff;stroke-width:2"/>
<polyline points="573.6 413.8,573.6 410.5,572.5 405.0,572.5 401.7,571.4 392.9,570.3 388.5,569.2 383.0,569.2 378.6,568.1 368.7,568.1 363.2,565.9 352.2,565.9 347.8,564.8 342.3,564.8 336.8,563.7 331.3,562.6 320.3,562.6 315.9,561.5 310.4,561.5 304.9,560.4 300.5,560.4 296.1,561.5 267.5,563.7 267.5,565.9 266.4,571.4 266.4,586.8 267.5,590.1 268.6,595.6 271.9,598.9 274.1,601.1 276.3,607.7 284.0,609.9 287.3,611.0 289.5,612.1 292.8,613.2 298.3,613.2 301.6,612.1 311.5,608.8 315.9,607.7 318.1,604.4 321.4,602.2 322.5,598.9 324.7,596.7 325.8,594.5 325.8,591.2 326.9,587.9 326.9,576.9 325.8,574.7 325.8,571.4 324.7,565.9 323.6,568.1 325.8,569.2 328.0,571.4 330.2,573.6 333.5,576.9 335.7,579.1 339.0,582.4 343.4,584.6 346.7,587.9 351.1,591.2 354.4,593.4 358.8,595.6 362.1,604.4 374.2,605.5 377.5,607.7 379.7,608.8 381.9,612.1 386.3,614.3 388.5,624.2 396.2,626.4 395.1,628.6 391.8" style="fill:none;stroke:#ffffff;stroke-width:2"/>
<polyline points="688.0 396.2,675.9 398.4,673.7 398.4,667.1 397.3,663.8 395.1,658.3 390.7,655.0 387.4,652.8 384.1,651.7 379.7,649.5 369.8,649.5 365.4,650.6 356.6,652.8 352.2,655.0 350.0,658.3 345.6,661.6 345.6,666.0 346.7,668.2 348.9,671.5 353.3,673.7 357.7,677.0 363.2,679.2 368.7,680.3 374.2,682.5 379.7,682.5 384.1,683.6 387.4,683.6 390.7,682.5 396.2,680.3 398.4,678.1 399.5,674.8 399.5,669.3 397.3,669.3 395.1,673.7 374.2" style="fill:none;stroke:#ffffff;stroke-width:2"/>
<polyline points="705.6 292.8,705.6 296.1,707.8 374.2,707.8 378.6,708.9 383.0,711.1 390.7,711.1 392.9,712.2 395.1,714.4 398.4,717.7 399.5,719.9 399.5,727.6 397.3,730.9 396.2,734.2 392.9,737.5 390.7,739.7 387.4,743.0 384.1,744.1 381.9,745.2 378.6,745.2 376.4,743.0 368.7,739.7 366.5,732.0 363.2,727.6 362.1,717.7 361.0,713.3 361.0,701.2 362.1,704.5 362.1,712.2 358.8" style="fill:none;stroke:#ffffff;stroke-width:2"/>
<polyline points="781.5 384.1,767.2 386.3,763.9 384.1,760.6 383.0,757.3 380.8,755.1 378.6,751.8 372.0,751.8 367.6,754.0 357.7,757.3 352.2,761.7 347.8,766.1 344.5,770.5 342.3,778.2 340.1,780.4 340.1,782.6 341.2,784.8 345.6,785.9 350.0,785.9 356.6,784.8 370.9,782.6 377.5,777.1 388.5,772.7 396.2,771.6 388.5,774.9 377.5" style="fill:none;stroke:#ffffff;stroke-width:2"/>
<polyline points="825.5 267.5,825.5 282.9,826.6 321.4,829.9 356.6,829.9 363.2,827.7 392.9" style="fill:none;stroke:#ffffff;stroke-width:2"/>
<polyline points="790.3 333.5,806.8 333.5,832.1 332.4,850.8 331.3,864.0 331.3,881.6 330.2" style="fill:none;stroke:#ffffff;stroke-width:2"/>
<polyline points="1657.1 277.4,1654.9 278.5,1651.6 279.6,1642.8 281.8,1639.5 281.8,1624.1 280.7,1620.8 278.5,1618.6 278.5,1615.3 275.2,1608.7 269.7,1607.6 267.5,1605.4 264.2,1604.3 262.0,1602.1 258.7,1601.0 256.5,1599.9 252.1,1597.7 247.7,1597.7 245.5,1598.8 225.7,1599.9 222.4,1601.0 220.2,1602.1 216.9,1603.2 214.7,1605.4 212.5,1606.5 210.3,1609.8 207.0,1610.9 204.8,1613.1 202.6,1615.3 201.5,1617.5 199.3,1619.7 198.2,1621.9 196.0,1624.1 194.9,1629.6 192.7,1631.8 191.6,1637.3 189.4,1639.5 188.3,1643.9 187.2,1647.2 186.1,1649.4 186.1,1669.2 187.2,1671.4 188.3,1673.6 188.3,1676.9 189.4,1679.1 190.5,1682.4 192.7,1687.9 196.0,1689.0 198.2,1691.2 201.5,1693.4 202.6,1694.5 205.9,1696.7 210.3,1697.8 213.6,1698.9 215.8,1698.9 218.0,1700.0 220.2,1701.1 223.5,1701.1 225.7,1702.2 236.7,1702.2 241.1,1701.1 252.1,1701.1 254.3,1698.9 256.5,1697.8 258.7,1695.6 262.0,1692.3 266.4,1691.2 268.6,1689.0 270.8,1683.5 275.2,1680.2 277.4,1678.0 278.5,1673.6 279.6,1670.3 280.7,1668.1 280.7,1663.7 281.8,1661.5 281.8,1653.8 282.9,1651.6 282.9,1640.6 281.8,1637.3 279.6,1637.3 277.4,1635.1 273.0,1635.1 268.6" style="fill:none;stroke:#ffffff;stroke-width:2"/>
<polyline points="1580.1 314.8,1580.1 311.5,1580.1 351.1,1580.1 353.3,1580.1 350.0" style="fill:none;stroke:#ffffff;stroke-width:2"/>
<polyline points="1566.9 313.7,1573.5 308.2,1575.7 308.2,1582.3 307.1,1586.7 307.1,1595.5 306.0,1599.9 306.0,1604.3 304.9,1607.6 304.9,1614.2 304.9" style="fill:none;stroke:#ffffff;stroke-width:2"/>
<polyline points="1596.6 334.6,1596.6 336.8,1595.5 355.5,1595.5 357.7,1594.4 359.9,1594.4 356.6,1595.5 350.0,1596.6 346.7,1597.7 344.5,1599.9 342.3,1602.1 339.0,1605.4 337.9,1608.7 337.9,1610.9 339.0,1614.2 340.1" style="fill:none;stroke:#ffffff;stroke-width:2"/>
<polyline points="1621.9 334.6,1621.9 343.4,1621.9 345.6,1621.9 348.9,1621.9 351.1,1621.9 355.5" style="fill:none;stroke:#ffffff;stroke-width:2"/>
<polyline points="1621.9 317.0,1623.0 318.1,1624.1 319.2,1627.4 321.4,1632.9 324.7" style="fill:none;stroke:#ffffff;stroke-width:2"/>
<polyline points="1645.0 347.8,1638.4 351.1,1636.2 348.9,1636.2 345.6,1638.4 334.6,1643.9 340.1,1645.0 343.4,1646.1 345.6,1647.2 351.1,1647.2 354.4,1648.3 339.0,1649.4 333.5,1649.4 331.3,1650.5 324.7,1650.5 322.5,1649.4 366.5,1648.3 369.8,1646.1 375.3,1643.9 377.5,1640.6 378.6,1639.5 377.5" style="fill:none;stroke:#ffffff;stroke-width:2"/>
<polyline points="1670.3 353.3,1665.9 358.8,1663.7 358.8,1661.5 356.6,1659.3 355.5,1659.3 352.2,1658.2 350.0,1658.2 346.7,1659.3 339.0,1662.6 335.7,1665.9 334.6,1667.0 336.8,1669.2 342.3,1669.2 345.6,1670.3 343.4,1670.3 340.1,1671.4 334.6,1671.4 332.4,1670.3 352.2,1669.2 356.6,1667.0 362.1,1665.9 365.4,1663.7 368.7,1662.6 370.9,1659.3 374.2,1660.4 368.7,1663.7 359.9" style="fill:none;stroke:#ffffff;stroke-width:2"/>
<polyline points="1685.7 330.2,1686.8 333.5,1690.1 334.6,1692.3 333.5,1692.3 331.3,1687.9 330.2,1686.8 332.4,1683.5 335.7,1683.5 337.9,1682.4 341.2,1681.3 343.4,1681.3 345.6,1682.4 352.2,1683.5 354.4,1685.7 356.6,1690.1 357.7,1693.4 354.4" style="fill:none;stroke:#ffffff;stroke-width:2"/>
<polyline points="1695.6 325.8,1696.7 332.4,1696.7 335.7,1697.8 339.0,1697.8 345.6,1698.9 348.9,1700.0 343.4,1701.1 340.1,1703.3 336.8,1706.6 331.3,1709.9 329.1,1712.1 326.9,1715.4 326.9,1719.8 325.8,1725.3 329.1,1726.4 331.3" style="fill:none;stroke:#ffffff;stroke-width:2"/>
<polyline points="1615.3 387.4,1610.9 385.2,1603.2 386.3,1601.0 387.4,1596.6 392.9,1595.5 396.2,1595.5 398.4,1596.6 402.8,1598.8 403.9,1601.0 403.9,1606.5 405.0,1609.8 406.1,1612.0 407.2,1614.2 409.4,1614.2 412.7,1613.1 418.2,1610.9 419.3,1607.6 422.6,1604.3 422.6,1601.0 421.5,1599.9 417.1,1599.9 411.6" style="fill:none;stroke:#ffffff;stroke-width:2"/>
<polyline points="1632.9 419.3,1624.1 422.6,1621.9 419.3,1619.7 413.8,1619.7 411.6,1620.8 405.0,1623.0 402.8,1626.3 401.7,1629.6 401.7,1632.9 405.0,1634.0 409.4,1634.0 411.6,1632.9 420.4,1630.7 422.6,1629.6 416.0" style="fill:none;stroke:#ffffff;stroke-width:2"/>
<polyline points="1641.7 395.1,1640.6 402.8,1640.6 405.0,1642.8 416.0,1647.2 418.2,1649.4 418.2,1651.6 416.0,1653.8 412.7,1654.9 409.4,1656.0 407.2,1657.1 401.7,1658.2 399.5,1658.2 397.3,1659.3 395.1,1659.3 392.9" style="fill:none;stroke:#ffffff;stroke-width:2"/>
<polyline points="1665.9 390.7,1662.6 401.7,1662.6 405.0,1661.5 414.9,1661.5 418.2,1663.7 409.4,1665.9 407.2,1667.0 405.0,1669.2 403.9,1671.4 401.7,1674.7 401.7,1676.9 400.6,1683.5 400.6,1690.1 400.6" style="fill:none;stroke:#ffffff;stroke-width:2"/>
<polyline points="1695.6 406.1,1683.5 408.3,1680.2 410.5,1678.0 412.7,1674.7 418.2,1673.6 422.6,1673.6 424.8,1676.9 428.1,1681.3 428.1,1685.7 427.0,1687.9 425.9,1692.3 423.7" style="fill:none;stroke:#ffffff;stroke-width:2"/>
<polyline points="1697.8 408.3,1697.8 412.7,1702.2 414.9,1705.5 414.9,1714.3 413.8,1717.6 410.5,1717.6 407.2,1716.5 405.0,1714.3 403.9,1712.1 403.9,1701.1 406.1,1698.9 408.3,1697.8 411.6,1695.6 419.3,1695.6 422.6,1697.8 429.2,1700.0 431.4,1703.3 433.6,1711.0 435.8,1719.8 433.6" style="fill:none;stroke:#ffffff;stroke-width:2"/>
<polyline points="579.1 722.9,576.9 724.0,573.6 726.2,572.5 728.4,569.2 730.6,567.0 732.8,560.4 740.5,556.0 743.8,552.7 748.2,548.3 752.6,545.0 757.0,540.6 761.4,535.1 768.0,531.8 771.3,519.7 784.5,517.5 786.7,515.3 791.1,517.5 791.1,520.8 792.2,525.2 793.3,529.6 793.3,534.0 794.4,539.5 795.5,545.0 795.5,550.5 796.6,556.0 796.6,562.6 797.7,568.1 798.8,573.6 798.8,580.2 799.9,585.7 801.0,591.2 801.0,596.7 802.1,613.2 804.3,618.7 805.4,623.1 805.4,627.5 806.5,633.0 807.6,637.4 807.6,641.8 808.7,647.3 809.8,651.7 809.8,658.3 810.9,663.8 810.9,670.4 812.0,677.0 812.0,733.1 813.1,736.4 813.1,752.9 814.2,756.2 814.2,774.9 815.3,778.2 815.3,788.1 816.4,790.3 816.4,801.3 817.5,803.5 817.5,816.7 816.4,820.0 810.9,822.2 807.6,824.4 805.4,826.6 802.1,828.8 797.7,831.0 794.4,838.7 784.5,839.8 781.2,842.0 777.9,847.5 769.1,849.7 766.9,850.8 763.6,851.9 761.4,854.1 759.2,855.2 755.9,857.4 754.8,858.5 752.6,860.7 750.4,861.8 748.2,864.0 744.9,861.8 744.9,832.1 746.0,826.6 746.0,820.0 747.1,814.5 747.1,802.4 748.2,795.8 748.2,789.2 749.3,783.7 749.3,756.2 750.4,750.7 750.4,697.9 751.5,693.5 751.5,651.7 750.4,649.5 750.4,642.9 749.3,640.7 749.3,637.4 748.2,635.2 748.2,633.0 747.1,630.8 747.1,626.4 746.0,624.2 746.0,619.8 744.9,617.6 744.9,615.4 743.8,611.0 742.7,608.8 742.7,605.5 741.6,603.3 741.6,600.0 740.5,596.7 740.5,593.4 739.4,591.2 738.3,589.0 738.3,586.8 737.2,584.6 737.2,582.4 736.1,580.2 736.1,576.9 735.0,573.6 732.8,571.4 731.7" style="fill:none;stroke:#ffffff;stroke-width:2"/>
<polyline points="562.6 796.6,562.6 794.4,564.8 792.2,567.0 788.9,570.3 785.6,576.9 777.9,580.2 774.6,586.8 766.9,589.0 763.6,592.3 760.3,594.5 757.0,596.7 754.8,603.3 747.1,605.5 746.0" style="fill:none;stroke:#ffffff;stroke-width:2"/>
<polyline points="596.7 801.0,598.9 801.0,609.9 791.1,613.2 786.7,616.5 783.4,620.9 777.9,625.3 773.5,638.5 759.2,641.8 755.9,651.7 748.2" style="fill:none;stroke:#ffffff;stroke-width:2"/>
<polyline points="644.0 809.8,646.2 808.7,648.4 805.4,650.6 803.2,655.0 797.7,658.3 793.3,663.8 785.6,667.1 782.3,670.4 777.9,673.7 774.6,690.2 759.2" style="fill:none;stroke:#ffffff;stroke-width:2"/>
<polyline points="688.0 818.6,688.0 816.4,689.1 814.2,692.4 809.8,694.6 806.5,697.9 803.2,704.5 795.5,708.9 791.1,712.2 785.6,715.5 781.2,719.9 775.7,723.2 771.3,728.7 763.6,730.9 760.3,735.3 754.8,736.4 752.6,738.6 750.4" style="fill:none;stroke:#ffffff;stroke-width:2"/>
<polyline points="740.8 820.8,740.8 818.6,741.9 815.3,745.2 810.9,746.3 808.7,749.6 805.4,751.8 802.1,755.1 797.7,762.8 788.9,766.1 785.6,773.8 775.7,781.5 768.0,784.8 763.6,788.1 760.3,790.3 757.0,793.6 753.7,796.9 749.3" style="fill:none;stroke:#ffffff;stroke-width:2"/>
<polyline points="798.0 813.1,798.0 810.9,800.2 806.5,802.4 803.2,803.5 799.9,805.7 795.5,809.0 786.7,811.2 782.3,817.8 770.2,818.9 765.8,822.2 759.2,823.3 754.8,825.5 749.3" style="fill:none;stroke:#ffffff;stroke-width:2"/>
<polyline points="528.5 772.4,531.8 771.3,543.9 771.3,554.9 772.4,561.5 772.4,567.0 773.5,569.2 773.5,578.0 774.6,580.2 774.6,589.0 775.7,592.3 775.7,604.4 776.8,607.7 776.8,617.6 777.9,619.8 777.9,627.5 779.0,629.7 779.0,637.4 780.1,640.7 780.1,648.4 781.2,650.6 781.2,657.2 782.3,659.4 782.3,662.7 783.4,664.9 783.4,670.4 784.5,672.6 784.5,681.4 785.6,683.6 785.6,694.6 786.7,699.0 786.7,703.4 787.8,706.7 787.8,712.2 788.9,714.4 788.9,728.7 790.0,730.9 790.0,741.9 791.1,745.2 791.1,756.2 792.2,758.4 792.2,762.8 793.3,767.2 793.3,770.5 794.4,773.8 794.4,779.3 795.5,781.5 795.5,788.1 796.6,790.3 796.6,799.1 797.7,801.3 797.7,827.7 797.7" style="fill:none;stroke:#ffffff;stroke-width:2"/>
<polyline points="563.7 743.8,559.3 741.6,559.3 743.8,562.6 744.9,568.1 747.1,572.5 748.2,574.7 748.2,582.4 749.3,584.6 749.3,591.2 750.4,594.5 750.4,597.8 751.5,600.0 751.5,603.3 752.6,605.5 752.6,607.7 753.7,611.0 754.8,614.3 754.8,619.8 755.9,622.0 755.9,633.0 757.0,635.2 757.0,638.5 758.1,640.7 758.1,646.2 759.2,648.4 759.2,656.1 760.3,658.3 760.3,661.6 761.4,663.8 761.4,669.3 762.5,671.5 762.5,679.2 763.6,681.4 763.6,692.4 764.7,694.6 764.7,703.4 765.8,707.8 765.8,721.0 766.9,723.2 766.9,738.6 768.0,740.8 768.0,747.4 769.1,751.8 769.1,760.6 770.2,762.8 770.2,773.8 771.3,776.0 771.3,792.5 772.4,794.7 772.4,803.5 773.5,806.8 773.5,812.3 774.6,814.5 774.6,825.5 775.7,827.7 775.7,845.3 775.7" style="fill:none;stroke:#ffffff;stroke-width:2"/>
<polyline points="540.6 851.6,540.6 854.9,541.7 865.9,542.8 871.4,542.8 876.9,543.9 890.1,543.9 897.8,542.8 925.3,542.8 927.5,541.7 930.8,541.7 927.5,540.6 922.0" style="fill:none;stroke:#ffffff;stroke-width:2"/>
<polyline points="531.8 893.4,539.5 881.3,542.8 878.0,549.4 870.3,553.8 867.0,557.1 863.7,560.4 861.5,562.6 859.3,564.8 859.3,565.9 860.4" style="fill:none;stroke:#ffffff;stroke-width:2"/>
<polyline points="532.9 903.3,535.1 902.2,539.5 905.5,542.8 907.7,545.0 909.9,549.4 912.1,552.7 914.3,554.9 917.6,558.2 919.8,560.4 922.0,562.6 923.1,564.8 925.3,568.1 926.4" style="fill:none;stroke:#ffffff;stroke-width:2"/>
<polyline points="572.5 903.3,580.2 909.9,582.4 909.9,587.9 908.8,590.1 905.5,590.1 903.3,591.2 900.0,591.2 897.8,590.1 893.4,589.0 891.2,586.8 890.1,584.6 890.1,580.2 891.2,578.0 894.5,575.8 898.9,571.4 908.8,570.3 915.4,570.3 919.8,572.5 930.8,574.7 933.0,576.9 934.1,579.1 934.1,583.5 931.9,586.8 926.4,591.2 915.4" style="fill:none;stroke:#ffffff;stroke-width:2"/>
<polyline points="592.3 891.2,592.3 902.2,593.4 906.6,594.5 909.9,597.8 916.5,598.9 919.8,601.1 922.0,605.5 923.1,606.6 920.9,616.5 898.9,618.7 895.6,618.7 893.4,619.8 891.2,619.8 895.6,617.6 901.1,614.3 909.9,608.8 922.0,604.4 933.0,600.0 942.9,597.8 950.6,595.6 955.0,593.4 961.6,591.2 966.0,592.3 963.8,596.7 956.1,603.3 940.7" style="fill:none;stroke:#ffffff;stroke-width:2"/>
<polyline points="635.2 870.3,627.5 881.3,627.5 885.7,626.4 890.1,626.4 894.5,627.5 920.9,628.6 925.3,631.9 936.3,633.0 938.5,636.3 939.6,642.9 931.9,644.0 927.5,646.2 924.2,647.3 919.8,647.3 916.5,646.2 907.7,644.0 906.6,639.6 905.5,635.2 905.5,626.4 907.7,622.0 909.9,618.7 913.2,615.4 915.4,615.4 917.6,615.4 919.8" style="fill:none;stroke:#ffffff;stroke-width:2"/>
<polyline points="662.7 931.9,662.7 934.1,660.5 934.1,655.0 927.5,652.8 925.3,651.7 922.0,651.7 918.7,657.2 900.0,659.4 898.9,662.7 897.8,666.0 897.8,671.5 900.0,673.7 903.3,674.8 907.7,674.8 912.1,673.7 925.3,671.5 928.6,670.4 931.9,668.2 933.0,667.1 929.7" style="fill:none;stroke:#ffffff;stroke-width:2"/>
<polyline points="695.7 923.1,686.9 930.8,684.7 929.7,683.6 927.5,682.5 922.0,682.5 917.6,684.7 908.8,688.0 905.5,691.3 901.1,694.6 897.8,697.9 895.6,700.1 894.5,703.4 894.5,707.8 898.9,707.8 902.2,706.7 916.5,703.4 920.9,701.2 925.3,699.0 928.6,696.8 930.8,694.6 930.8,694.6 928.6,695.7 925.3,697.9 923.1,699.0 919.8,701.2 916.5,702.3 913.2,704.5 909.9,705.6 906.6,706.7 896.7,706.7 893.4,710.0 920.9,711.1 924.2,713.3 927.5,715.5 929.7,717.7 930.8,719.9 930.8,724.3 928.6" style="fill:none;stroke:#ffffff;stroke-width:2"/>
<polyline points="727.6 892.3,725.4 905.5,725.4 909.9,726.5 934.1,726.5 936.3,727.6 934.1,727.6 929.7,729.8 924.2,730.9 918.7,733.1 912.1,735.3 906.6,739.7 897.8,743.0 894.5,745.2 893.4,749.6 893.4,755.1 894.5" style="fill:none;stroke:#ffffff;stroke-width:2"/>
<polyline points="759.5 878.0,760.6 884.6,760.6 889.0,761.7 893.4,762.8 900.0,762.8 905.5,763.9 912.1,765.0 926.4,765.0 933.0,762.8 949.5,760.6 950.6,758.4 950.6,752.9 949.5,750.7 947.3,748.5 942.9,747.4 938.5,747.4 933.0,749.6 922.0,752.9 917.6,756.2 914.3,760.6 912.1,765.0 911.0,769.4 911.0,774.9 912.1,778.2 914.3" style="fill:none;stroke:#ffffff;stroke-width:2"/>
<polyline points="1096.1 794.4,1096.1 796.6,1097.2 859.3,1097.2 863.7,1098.3 868.1,1099.4 876.9,1099.4 881.3,1100.5 890.1,1100.5 894.5,1100.5 994.6,1102.7 994.6,1104.9 995.7,1108.2 995.7,1115.9 996.8,1118.1 996.8,1145.6 997.9,1148.9 997.9,1178.6 996.8,1180.8 996.8,1187.4 995.7,1189.6 995.7,1212.7 994.6,1216.0 994.6,1245.7 995.7,1247.9 995.7,1261.1 996.8,1263.3 996.8,1265.5 994.6,1265.5 991.3,1264.4 970.4,1264.4 967.1,1263.3 964.9,1263.3 961.6,1262.2 959.4,1262.2 956.1,1261.1 953.9,1261.1 950.6,1260.0 946.2,1258.9 944.0,1258.9 941.8,1257.8 938.5,1257.8 936.3,1256.7 930.8,1256.7 928.6,1257.8 873.6,1257.8 868.1,1258.9 863.7,1258.9 861.5,1260.0 857.1,1260.0 854.9,1261.1 852.7,1261.1 850.5,1262.2 846.1,1263.3 842.8,1263.3 840.6,1264.4 834.0,1264.4 831.8,1265.5 816.4,1265.5 814.2,1266.6 809.8,1266.6 807.6,1265.5 791.1,1262.2 790.0,1260.0 790.0,1253.4 788.9,1251.2 788.9,1203.9 790.0,1201.7 790.0,1195.1 791.1,1192.9 791.1,1183.0 792.2,1179.7 792.2,1167.6 793.3,1165.4 793.3,1155.5 794.4,1152.2 794.4,1123.6 795.5,1121.4 795.5,1110.4 796.6,1108.2 796.6,1107.1 793.3" style="fill:none;stroke:#ffffff;stroke-width:2"/>
<polyline points="1139.0 791.1,1142.3 788.9,1143.4 786.7,1148.9 781.2,1153.3 775.7,1155.5 773.5,1159.9 768.0,1162.1 765.8,1166.5 760.3,1168.7 758.1,1172.0 757.0,1175.3 760.3,1183.0 769.1,1185.2 770.2,1188.5 772.4,1189.6 774.6,1191.8 775.7,1194.0 777.9,1196.2 779.0,1198.4 781.2,1203.9 784.5,1206.1 786.7,1208.3 787.8,1210.5 790.0" style="fill:none;stroke:#ffffff;stroke-width:2"/>
<polyline points="1122.5 824.1,1122.5 827.4,1123.6 832.9,1123.6 835.1,1124.7 837.3,1124.7 842.8,1125.8 846.1,1125.8 848.3,1126.9 853.8,1126.9 856.0,1128.0 859.3,1128.0 861.5,1129.1 868.1,1129.1 871.4,1130.2 878.0,1130.2 881.3,1131.3 883.5,1131.3 885.7,1132.4 887.9,1132.4 890.1,1133.5 896.7,1133.5 898.9,1134.6 904.4,1134.6 906.6,1135.7 913.2,1135.7 916.5,1137.9 971.5,1141.2 971.5,1167.6 970.4,1170.9 970.4,1181.9 969.3,1185.2 969.3,1194.0 968.2,1196.2 968.2,1198.4 967.1,1200.6 967.1,1234.7 963.8,1234.7 961.6,1233.6 918.7,1233.6 916.5,1232.5 914.3,1232.5 912.1,1231.4 906.6,1231.4 903.3,1230.3 900.0,1230.3 897.8,1229.2 892.3,1229.2 890.1,1228.1 852.7,1228.1 850.5,1227.0 839.5,1227.0 837.3,1225.9 834.0,1222.6 832.9,1220.4 832.9,1177.5 834.0,1175.3 834.0,1169.8 835.1,1167.6 835.1,1134.6 834.0" style="fill:none;stroke:#ffffff;stroke-width:2"/>
<polyline points="1145.6 859.3,1142.3 860.4,1144.5 859.3,1150.0 857.1,1154.4 859.3,1156.6 859.3,1159.9 861.5,1162.1 862.6,1164.3 862.6,1170.9 859.3,1174.2 857.1,1176.4 856.0,1179.7 854.9,1181.9 857.1,1186.3 860.4,1188.5 861.5,1191.8 863.7,1194.0 864.8,1196.2 864.8,1200.6 863.7,1201.7 862.6" style="fill:none;stroke:#ffffff;stroke-width:2"/>
<polyline points="1151.1 886.8,1153.3 886.8,1181.9 887.9,1184.1 887.9,1197.3 886.8,1200.6 885.7,1202.8 885.7,1209.4 886.8" style="fill:none;stroke:#ffffff;stroke-width:2"/>
<polyline points="1151.1 922.0,1153.3 922.0,1163.2 920.9,1168.7 919.8,1174.2 915.4,1176.4 915.4,1188.5 916.5,1190.7 916.5,1208.3 916.5" style="fill:none;stroke:#ffffff;stroke-width:2"/>
<polyline points="1156.6 950.6,1158.8 950.6,1165.4 948.4,1167.6 947.3,1170.9 946.2,1177.5 942.9,1180.8 941.8,1184.1 941.8,1187.4 940.7,1189.6 940.7,1191.8 939.6,1194.0 939.6,1200.6 940.7" style="fill:none;stroke:#ffffff;stroke-width:2"/>
<polyline points="1121.4 1038.6,1117.0 1037.5,1111.5 1039.7,1109.3 1041.9,1106.0 1046.3,1103.8 1049.6,1100.5 1057.3,1099.4 1060.6,1098.3 1066.1,1097.2 1069.4,1097.2 1071.6,1098.3 1076.0,1099.4 1078.2,1101.6 1081.5,1103.8 1083.7,1106.0 1084.8,1108.2 1087.0,1110.4 1088.1,1114.8 1089.2,1118.1 1089.2,1121.4 1088.1,1124.7 1084.8" style="fill:none;stroke:#ffffff;stroke-width:2"/>
<polyline points="1136.8 1040.8,1136.8 1051.8,1135.7 1059.5,1135.7 1063.9,1139.0 1081.5" style="fill:none;stroke:#ffffff;stroke-width:2"/>
<polyline points="1154.4 1066.1,1154.4 1076.0,1155.5 1092.5,1155.5 1089.2" style="fill:none;stroke:#ffffff;stroke-width:2"/>
<polyline points="1154.4 1046.3,1157.7 1052.9,1158.8 1054.0,1159.9 1055.1,1162.1 1057.3,1166.5 1059.5" style="fill:none;stroke:#ffffff;stroke-width:2"/>
<polyline points="1179.7 1083.7,1168.7 1081.5,1168.7 1079.3,1167.6 1077.1,1167.6 1074.9,1168.7 1068.3,1169.8 1066.1,1172.0 1063.9,1175.3 1062.8,1177.5 1065.0,1178.6 1067.2,1180.8 1074.9,1180.8 1077.1,1179.7 1085.9,1176.4 1087.0,1174.2 1087.0,1170.9 1085.9,1168.7 1081.5,1167.6 1076.0,1167.6 1072.7,1169.8 1114.5,1170.9 1112.3,1172.0 1105.7" style="fill:none;stroke:#ffffff;stroke-width:2"/>
<polyline points="1186.3 1044.1,1185.2 1056.2,1185.2 1059.5,1186.3 1078.2,1187.4 1081.5,1190.7 1090.3,1192.9 1092.5,1194.0 1094.7,1196.2 1095.8,1199.5 1095.8,1200.6 1093.6,1203.9 1088.1,1205.0 1084.8,1206.1 1080.4,1207.2 1077.1,1207.2 1074.9,1205.0 1069.4,1202.8 1069.4,1200.6 1071.6,1197.3 1072.7,1195.1 1074.9,1189.6 1082.6,1192.9 1081.5" style="fill:none;stroke:#ffffff;stroke-width:2"/>
<polyline points="1220.4 1089.2,1214.9 1095.8,1212.7 1095.8,1211.6 1092.5,1210.5 1090.3,1210.5 1087.0,1211.6 1074.9,1212.7 1072.7,1214.9 1070.5,1218.2 1068.3,1221.5 1068.3,1225.9 1070.5,1228.1 1072.7,1229.2 1076.0,1229.2 1079.3,1228.1 1092.5,1227.0 1094.7,1223.7 1098.0,1222.6 1095.8,1221.5 1089.2" style="fill:none;stroke:#ffffff;stroke-width:2"/>
<polyline points="1239.1 1087.0,1231.4 1090.3,1229.2 1090.3,1227.0 1087.0,1225.9 1083.7,1225.9 1081.5,1228.1 1070.5,1231.4 1067.2,1236.9 1062.8,1240.2 1061.7,1242.4 1060.6,1245.7 1060.6,1246.8 1062.8,1247.9 1066.1,1247.9 1069.4,1246.8 1081.5,1245.7 1085.9,1244.6 1088.1,1242.4 1090.3,1241.3 1092.5,1240.2 1089.2,1240.2 1087.0,1241.3 1079.3,1243.5 1077.1,1244.6 1074.9,1244.6 1072.7,1246.8 1070.5,1247.9 1067.2,1247.9 1065.0,1249.0 1062.8,1249.0 1060.6,1250.1 1079.3,1251.2 1082.6,1253.4 1085.9,1254.5 1089.2,1256.7 1091.4,1258.9 1088.1" style="fill:none;stroke:#ffffff;stroke-width:2"/>
<polyline points="1263.3 1059.5,1264.4 1068.3,1265.5 1071.6,1269.9 1083.7,1271.0 1087.0,1272.1 1089.2,1272.1 1091.4,1273.2 1083.7,1275.4 1072.7,1276.5 1069.4,1277.6 1067.2,1279.8 1065.0,1280.9 1062.8,1283.1 1062.8,1290.8 1063.9" style="fill:none;stroke:#ffffff;stroke-width:2"/>
<polyline points="1304.0 1032.0,1305.1 1043.0,1306.2 1048.5,1308.4 1054.0,1309.5 1059.5,1311.7 1065.0,1312.8 1070.5,1315.0 1087.0,1315.0 1091.4,1312.8 1098.0,1308.4 1100.2,1306.2 1100.2,1300.7 1098.0,1297.4 1095.8,1295.2 1092.5,1294.1 1089.2,1293.0 1082.6,1295.2 1079.3,1301.8 1073.8,1307.3 1071.6,1315.0 1069.4,1327.1 1068.3" style="fill:none;stroke:#ffffff;stroke-width:2"/>
<polyline points="1602.1 774.6,1602.1 776.8,1603.2 785.6,1603.2 791.1,1604.3 796.6,1604.3 802.1,1605.4 809.8,1607.6 827.4,1609.8 839.5,1610.9 851.6,1613.1 882.4,1614.2 890.1,1614.2 896.7,1615.3 913.2,1615.3 919.8,1616.4 926.4,1617.5 931.9,1617.5 937.4,1618.6 942.9,1619.7 951.7,1620.8 956.1,1621.9 964.9,1621.9 968.2,1623.0 971.5,1623.0 974.8,1624.1 980.3,1624.1 982.5,1625.2 992.4,1625.2 994.6,1626.3 1004.5,1626.3 1007.8,1627.4 1013.3,1627.4 1015.5,1628.5 1018.8,1629.6 1021.0,1629.6 1023.2,1630.7 1033.1,1630.7 1035.3,1631.8 1040.8,1636.2 1040.8,1645.0 1041.9,1650.5 1043.0,1658.2 1043.0,1713.2 1041.9,1722.0 1041.9,1731.9 1040.8,1751.7 1040.8,1760.5 1039.7,1770.4 1039.7,1779.2 1038.6,1827.6 1034.2,1837.5 1033.1,1847.4 1033.1,1857.3 1032.0,1867.2 1032.0,1906.8 1030.9,1914.5 1030.9,1928.8 1029.8,1936.5 1029.8,1944.2 1028.7,1959.6 1027.6,1966.2 1026.5,1971.7 1025.4,1980.5 1024.3,1984.9 1023.2,1988.2 1023.2,1991.5 1022.1,1995.9 1021.0,2010.2 1018.8,2020.1 1016.6,2026.7 1015.5,2032.2 1015.5,2037.7 1014.4,2042.1 1014.4,2046.5 1013.3,2050.9 1013.3,2074.0 1012.2,2076.2 1012.2,2089.4 1011.1,2091.6 1011.1,2105.9 1010.0,2109.2 1010.0,2132.3 1011.1,2134.5 1011.1,2142.2 1012.2,2146.6 1012.2,2148.8 1013.3,2151.0 1013.3,2159.8 1014.4,2162.0 1014.4,2170.8 1015.5,2173.0 1015.5,2178.5 1016.6,2181.8 1016.6,2185.1 1017.7,2188.4 1017.7,2208.2 1016.6,2208.2 1014.4,2207.1 1000.1,2207.1 996.8,2204.9 992.4,2203.8 989.1,2201.6 980.3,2200.5 974.8,2199.4 970.4,2197.2 964.9,2196.1 958.3,2195.0 952.8,2192.8 947.3,2192.8 940.7,2191.7 934.1,2190.6 928.6,2189.5 922.0,2188.4 916.5,2187.3 909.9,2185.1 903.3,2185.1 896.7,2184.0 890.1,2182.9 882.4,2181.8 867.0,2181.8 859.3,2182.9 808.7,2182.9 803.2,2184.0 788.9,2184.0 783.4,2182.9 752.6,2182.9 749.3,2181.8 742.7,2179.6 742.7,2060.8 743.8,2025.6 744.9,2008.0 744.9,1994.8 746.0,1986.0 746.0,1893.6 743.8,1884.8 743.8,1812.2 746.0,1804.5 747.1,1777.0 750.4,1771.5 751.5,1766.0 751.5,1762.7 752.6,1758.3 752.6,1740.7 753.7,1737.4 753.7,1727.5 754.8,1724.2 754.8,1706.6 755.9,1701.1 755.9,1670.3 757.0,1664.8 757.0,1646.1 758.1,1643.9 758.1,1640.6 760.3,1638.4 761.4,1635.1 762.5,1629.6 764.7,1627.4 764.7,1624.1 765.8,1621.9 766.9,1619.7 766.9,1617.5 769.1,1615.3 769.1,1612.0 771.3,1609.8 772.4,1607.6 772.4,1604.3 773.5,1606.5 774.6" style="fill:none;stroke:#ffffff;stroke-width:2"/>
<polyline points="1686.8 843.9,1675.8 842.8,1673.6 842.8,1663.7 843.9,1661.5 843.9,1658.2 846.1,1648.3 853.8,1642.8 861.5,1640.6 865.9,1639.5 871.4,1637.3 875.8,1636.2 881.3,1636.2 885.7,1638.4 904.4,1642.8 913.2,1646.1 917.6,1649.4 920.9,1656.0 926.4,1659.3 928.6,1664.8 930.8,1667.0 931.9,1670.3 931.9,1680.2 929.7,1685.7 924.2" style="fill:none;stroke:#ffffff;stroke-width:2"/>
<polyline points="1687.9 845.0,1687.9 857.1,1689.0 861.5,1690.1 867.0,1691.2 880.2,1693.4 886.8,1693.4 894.5,1694.5 902.2,1694.5 909.9,1695.6 925.3,1695.6 933.0,1696.7 953.9,1697.8 956.1,1700.0 950.6,1702.2 941.8" style="fill:none;stroke:#ffffff;stroke-width:2"/>
<polyline points="1715.4 893.4,1715.4 904.4,1716.5 927.5,1716.5 931.9,1717.6 934.1,1717.6 936.3,1718.7 930.8" style="fill:none;stroke:#ffffff;stroke-width:2"/>
<polyline points="1714.3 846.1,1715.4 859.3,1716.5 863.7,1718.7 867.0,1722.0 872.5,1728.6 880.2" style="fill:none;stroke:#ffffff;stroke-width:2"/>
<polyline points="1760.5 927.5,1747.3 930.8,1745.1 929.7,1741.8 927.5,1739.6 924.2,1738.5 920.9,1736.3 916.5,1736.3 912.1,1735.2 906.6,1735.2 901.1,1737.4 892.3,1739.6 889.0,1741.8 886.8,1745.1 884.6,1751.7 884.6,1752.8 887.9,1755.0 891.2,1756.1 895.6,1756.1 901.1,1753.9 917.6,1752.8 919.8,1750.6 922.0,1746.2 922.0,1741.8 920.9,1737.4 914.3,1736.3 911.0,1734.1 906.6,1734.1 902.2,1733.0 897.8,1733.0 894.5,1734.1 900.0,1734.1 906.6,1735.2 913.2,1735.2 922.0,1736.3 971.5,1737.4 974.8,1740.7 982.5,1744.0 977.0,1747.3 966.0" style="fill:none;stroke:#ffffff;stroke-width:2"/>
<polyline points="1768.2 846.1,1768.2 856.0,1769.3 891.2,1771.5 903.3,1773.7 913.2,1774.8 920.9,1775.9 925.3,1777.0 928.6,1777.0 933.0,1778.1 935.2,1779.2 938.5,1780.3 940.7,1782.5 939.6,1785.8 935.2,1788.0 930.8,1791.3 926.4,1793.5 922.0,1794.6 917.6,1796.8 912.1,1797.9 907.7,1797.9 903.3,1795.7 891.2,1790.2 887.9,1785.8 886.8,1781.4 886.8,1777.0 889.0,1769.3 894.5,1767.1 897.8,1764.9 904.4,1764.9 908.8" style="fill:none;stroke:#ffffff;stroke-width:2"/>
<polyline points="1822.1 925.3,1813.3 929.7,1810.0 928.6,1808.9 926.4,1806.7 923.1,1805.6 919.8,1803.4 915.4,1803.4 911.0,1804.5 891.2,1805.6 887.9,1806.7 885.7,1810.0 884.6,1811.1 886.8,1812.2 891.2,1813.3 896.7,1813.3 903.3,1811.1 937.4,1810.0 939.6,1810.0 936.3,1810.0 928.6" style="fill:none;stroke:#ffffff;stroke-width:2"/>
<polyline points="1835.3 915.4,1834.2 924.2,1833.1 926.4,1828.7 929.7,1826.5 927.5,1826.5 924.2,1825.4 919.8,1825.4 915.4,1827.6 894.5,1829.8 890.1,1833.1 886.8,1839.7 882.4,1841.9 882.4,1843.0 884.6,1845.2 893.4,1846.3 898.9,1846.3 904.4,1845.2 915.4,1844.1 920.9,1841.9 924.2,1840.8 927.5,1839.7 929.7,1837.5 931.9,1837.5 928.6,1838.6 922.0,1839.7 917.6,1843.0 908.8,1845.2 903.3,1846.3 897.8,1848.5 891.2,1849.6 885.7,1849.6 880.2,1850.7 875.8,1850.7 873.6,1852.9 903.3,1854.0 909.9,1857.3 915.4,1860.6 919.8,1863.9 923.1,1868.3 926.4,1871.6 927.5,1876.0 927.5,1881.5 925.3" style="fill:none;stroke:#ffffff;stroke-width:2"/>
<polyline points="1882.6 870.3,1881.5 881.3,1881.5 886.8,1882.6 916.5,1882.6 922.0,1883.7 914.3,1884.8 907.7,1888.1 891.2,1890.3 886.8,1894.7 880.2,1898.0 879.1,1901.3 879.1,1906.8 879.1" style="fill:none;stroke:#ffffff;stroke-width:2"/>
<polyline points="1926.6 828.5,1927.7 843.9,1927.7 853.8,1926.6 909.9,1923.3 923.1,1921.1 927.5,1920.0 930.8,1917.8 931.9,1913.4 933.0,1910.1 927.5,1907.9 918.7,1907.9 913.2,1909.0 898.9,1911.2 894.5,1913.4 892.3,1921.1 887.9,1925.5 887.9,1932.1 890.1" style="fill:none;stroke:#ffffff;stroke-width:2"/>
<polyline points="1946.4 925.3,1945.3 919.8,1945.3 915.4,1946.4 908.8,1947.5 901.1,1950.8 891.2,1954.1 880.2,1957.4 867.0,1960.7 856.0,1962.9 846.1,1965.1 840.6,1965.1 836.2,1966.2 834.0,1968.4 830.7,1968.4 832.9,1967.3 933.0,1968.4 923.1,1970.6 911.0,1972.8 896.7,1976.1 882.4,1978.3 869.2,1980.5 858.2,1981.6 849.4,1982.7 842.8,1983.8 839.5,1984.9 837.3,1984.9 835.1,1986.0 839.5,1986.0 847.2,1987.1 857.1,1987.1 870.3,1988.2 934.1" style="fill:none;stroke:#ffffff;stroke-width:2"/>
<polyline points="2008.0 917.6,1995.9 918.7,1994.8 916.5,1993.7 913.2,1993.7 908.8,1994.8 900.0,1998.1 894.5,2000.3 890.1,2003.6 886.8,2006.9 884.6,2009.1 883.5,2014.6 884.6,2015.7 887.9,2017.9 892.3,2017.9 896.7,2019.0 902.2,2019.0 907.7,2017.9 916.5,2015.7 920.9,2011.3 926.4,2010.2 924.2,2010.2 922.0,2012.4 883.5,2013.5 879.1,2013.5 875.8,2014.6 871.4,2014.6 875.8,2015.7 904.4,2016.8 909.9,2016.8 915.4,2019.0 920.9,2020.1 924.2,2021.2 926.4,2024.5 925.3" style="fill:none;stroke:#ffffff;stroke-width:2"/>
<polyline points="2032.2 865.9,2031.1 879.1,2031.1 884.6,2030.0 916.5,2030.0 922.0,2031.1 919.8,2033.3 914.3,2034.4 908.8,2035.5 902.2,2037.7 896.7,2039.9 892.3,2041.0 887.9,2044.3 884.6,2045.4 882.4,2047.6 882.4,2053.1 885.7,2054.2 890.1,2055.3 895.6,2056.4 908.8,2056.4 914.3,2055.3 930.8,2055.3 933.0,2058.6 928.6,2061.9 924.2" style="fill:none;stroke:#ffffff;stroke-width:2"/>
<polyline points="2080.6 911.0,2069.6 916.5,2066.3 916.5,2061.9 915.4,2059.7 913.2,2058.6 909.9,2058.6 906.6,2059.7 893.4,2061.9 890.1,2065.2 886.8,2068.5 884.6,2077.3 882.4,2080.6 886.8,2080.6 891.2,2081.7 895.6,2081.7 901.1,2080.6 914.3,2079.5 917.6,2079.5 919.8,2077.3 918.7,2077.3 915.4,2078.4 903.3,2079.5 897.8,2080.6 885.7,2082.8 875.8,2083.9 872.5,2085.0 870.3,2085.0 868.1,2086.1 887.9,2086.1 893.4,2088.3 904.4,2089.4 908.8,2090.5 912.1,2092.7 915.4,2096.0 916.5" style="fill:none;stroke:#ffffff;stroke-width:2"/>
<polyline points="2110.3 901.1,2098.2 906.6,2096.0 907.7,2093.8 907.7,2091.6 905.5,2090.5 903.3,2090.5 898.9,2092.7 889.0,2096.0 884.6,2098.2 879.1,2101.5 875.8,2105.9 874.7,2105.9 879.1,2103.7 911.0,2103.7 914.3,2102.6 918.7,2101.5 920.9,2100.4 915.4,2100.4 912.1,2101.5 908.8,2102.6 904.4,2102.6 900.0,2103.7 895.6,2107.0 881.3,2107.0 876.9,2108.1 873.6,2108.1 870.3,2109.2 867.0,2109.2 871.4,2110.3 875.8,2110.3 881.3,2108.1 918.7,2104.8 933.0,2102.6 938.5,2101.5 942.9,2099.3 946.2,2098.2 948.4,2094.9 948.4,2094.9 945.1,2097.1 925.3,2099.3 919.8,2112.5 892.3,2114.7 892.3,2130.1 891.2,2132.3 890.1,2135.6 887.9,2135.6 885.7,2134.5 879.1,2132.3 878.0,2126.8 876.9,2124.6 876.9,2121.3 880.2,2120.2 884.6,2119.1 887.9,2119.1 893.4,2120.2 915.4,2122.4 918.7,2125.7 924.2,2127.9 924.2,2130.1 923.1,2132.3 918.7,2135.6 908.8" style="fill:none;stroke:#ffffff;stroke-width:2"/>
<polyline points="2136.7 878.0,2136.7 890.1,2137.8 909.9,2137.8 916.5,2140.0 916.5,2145.5 903.3,2149.9 895.6,2155.4 890.1,2168.6 879.1,2175.2 876.9,2180.7 875.8,2192.8 882.4" style="fill:none;stroke:#ffffff;stroke-width:2"/>
<polyline points="2450.2 539.2,2448.0 546.9,2446.9 552.4,2444.7 564.5,2443.6 572.2,2442.5 581.0,2441.4 603.0,2441.4 616.2,2442.5 660.2,2442.5 671.2,2443.6 682.2,2444.7 703.1,2444.7 713.0,2446.9 818.6,2448.0 825.2,2448.0 832.9,2449.1 839.5,2449.1 846.1,2450.2 857.1,2451.3 862.6,2451.3 867.0,2452.4 873.6,2452.4 876.9,2453.5 886.8,2453.5 890.1,2456.8 917.6,2459.0 917.6,2467.8 916.5,2473.3 915.4,2481.0 914.3,2488.7 912.1,2498.6 911.0,2519.5 907.7,2542.6 905.5,2615.2 900.0,2626.2 898.9,2650.4 897.8,2661.4 896.7,2681.2 895.6,2719.7 894.5,2728.5 893.4,2737.3 893.4,2762.6 892.3,2770.3 892.3,2806.6 891.2,2816.5 891.2,2848.4 892.3,2855.0 892.3,2864.9 893.4,2869.3 893.4,2921.0 894.5,2924.3 894.5,2938.6 895.6,2940.8 895.6,2944.1 896.7,2946.3 896.7,2949.6 897.8,2951.8 897.8,2955.1 898.9,2957.3 898.9,2959.5 900.0,2962.8 901.1,2965.0 902.2,2967.2 902.2,3000.2 901.1,3002.4 901.1,3009.0 902.2,3011.2 902.2,3015.6 903.3,3017.8 903.3,3023.3 904.4,3025.5 904.4,3037.6 903.3,3037.6 901.1,3036.5 897.8,3034.3 895.6,3033.2 893.4,3031.0 890.1,3025.5 882.4,3023.3 879.1,3020.0 874.7,3014.5 865.9,3012.3 861.5,3006.8 848.3,3004.6 843.9,3002.4 835.1,3000.2 825.2,2999.1 820.8,2998.0 815.3,2998.0 809.8,2995.8 799.9,2993.6 788.9,2992.5 784.5,2990.3 774.6,2989.2 770.2,2989.2 765.8,2988.1 761.4,2987.0 755.9,2987.0 750.4,2985.9 746.0,2985.9 740.5,2983.7 730.6,2983.7 726.2,2982.6 720.7,2981.5 717.4,2980.4 713.0,2977.1 700.9,2977.1 696.5,2976.0 692.1,2974.9 682.2,2974.9 677.8,2973.8 673.4,2973.8 667.9,2972.7 663.5,2972.7 658.0,2971.6 649.2,2971.6 644.8,2970.5 637.1,2970.5 633.8,2969.4 630.5,2969.4 626.1,2968.3 575.5,2968.3 572.2,2967.2 567.8,2967.2 564.5,2966.1 556.8,2966.1 553.5,2965.0 546.9,2965.0 543.6,2963.9 534.8,2962.8 531.5,2962.8 529.3,2961.7 526.0,2961.7 523.8,2960.6 520.5,2958.4 517.2,2956.2 515.0,2952.9 513.9,2950.7 512.8,2947.4 512.8,2939.7 511.7,2935.3 511.7,2930.9 510.6,2924.3 509.5,2917.7 509.5,2911.1 508.4,2904.5 508.4,2888.0 507.3,2879.2 507.3,2839.6 508.4,2828.6 508.4,2805.5 510.6,2794.5 510.6,2784.6 511.7,2763.7 512.8,2753.8 513.9,2735.1 515.0,2726.3 516.1,2717.5 516.1,2708.7 517.2,2702.1 517.2,2694.4 518.3,2687.8 518.3,2675.7 519.4,2670.2 520.5,2664.7 520.5,2659.2 521.6,2652.6 522.7,2640.5 523.8,2627.3 526.0,2614.1 527.1,2608.6 528.2,2602.0 529.3,2596.5 530.4,2576.7 534.8,2572.3 534.8,2564.6 535.9,2561.3 537.0,2559.1 537.0,2548.1 538.1,2545.9 538.1,2511.8 539.2,2509.6 539.2,2499.7 540.3,2496.4 540.3,2492.0 541.4,2489.8 541.4,2485.4 542.5,2482.1 542.5,2477.7 543.6,2475.5 543.6,2463.4 544.7,2461.2 544.7,2452.4 545.8,2450.2 545.8,2448.0 545.8" style="fill:none;stroke:#ffffff;stroke-width:2"/>
<polyline points="2537.1 829.6,2536.0 827.4,2534.9 824.1,2533.8 818.6,2533.8 815.3,2532.7 806.5,2532.7 802.1,2531.6 796.6,2531.6 790.0,2530.5 781.2,2527.2 759.2,2526.1 746.0,2521.7 716.3,2521.7 709.7,2520.6 705.3,2520.6 700.9,2519.5 695.4,2519.5 689.9,2518.4 684.4,2518.4 678.9,2517.3 667.9,2517.3 663.5,2518.4 637.1,2520.6 637.1,2522.8 638.2,2527.2 639.3,2532.7 640.4,2538.2 642.6,2544.8 643.7,2551.4 647.0,2558.0 649.2,2571.2 654.7,2576.7 659.1,2582.2 662.4,2585.5 666.8,2587.7 671.2,2588.8 676.7,2589.9 688.8,2589.9 695.4,2586.6 702.0,2583.3 707.5,2571.2 722.9,2566.8 726.2,2558.0 731.7,2554.7 733.9,2550.3 735.0,2547.0 736.1,2544.8 737.2,2541.5 737.2,2536.0 736.1,2536.0 731.7" style="fill:none;stroke:#ffffff;stroke-width:2"/>
<polyline points="2611.9 783.4,2598.7 788.9,2596.5 788.9,2588.8 787.8,2585.5 785.6,2583.3 782.3,2582.2 777.9,2581.1 774.6,2580.0 769.1,2580.0 763.6,2581.1 748.2,2583.3 744.9,2586.6 741.6,2592.1 737.2,2594.3 737.2,2600.9 739.4,2604.2 742.7,2607.5 747.1,2609.7 752.6,2610.8 759.2,2611.9 772.4,2611.9 779.0,2610.8 790.0,2609.7 793.3,2607.5 797.7,2607.5 795.5,2608.6 774.6,2609.7 768.0,2614.1 746.0,2615.2 738.3,2616.3 731.7,2616.3 727.3,2617.4 722.9,2617.4 720.7,2618.5 755.9,2622.9 770.2,2626.2 777.9,2629.5 783.4,2637.2 793.3,2642.7 796.6,2651.5 799.9" style="fill:none;stroke:#ffffff;stroke-width:2"/>
<polyline points="2660.3 708.6,2658.1 719.6,2658.1 726.2,2657.0 788.9,2657.0 782.3,2658.1 774.6,2660.3 768.0,2661.4 761.4,2664.7 755.9,2666.9 750.4,2670.2 746.0,2672.4 742.7,2675.7 740.5,2681.2 738.3,2684.5 737.2,2688.9 737.2,2694.4 738.3,2703.2 741.6" style="fill:none;stroke:#ffffff;stroke-width:2"/>
<polyline points="2736.2 739.4,2721.9 732.8,2716.4 731.7,2712.0 731.7,2693.3 733.9,2690.0 735.0,2687.8 738.3,2686.7 740.5,2686.7 743.8,2687.8 749.3,2691.1 752.6,2695.5 755.9,2701.0 759.2,2712.0 766.9,2718.6 770.2,2724.1 773.5,2728.5 776.8,2731.8 780.1,2734.0 783.4,2735.1 790.0,2735.1 792.2,2732.9 795.5,2729.6 797.7,2725.2 799.9,2721.9 801.0,2717.5 802.1,2713.1 802.1,2702.1 796.6,2702.1 791.1,2704.3 781.2" style="fill:none;stroke:#ffffff;stroke-width:2"/>
<polyline points="2735.1 749.3,2757.1 752.6,2767.0 752.6,2771.4 751.5,2775.8 749.3,2779.1 747.1,2781.3 744.9,2785.7 739.4,2785.7 736.1,2784.6 731.7,2781.3 729.5,2778.0 728.4,2773.6 727.3,2769.2 727.3,2759.3 728.4,2756.0 730.6,2752.7 733.9,2750.5 739.4,2749.4 743.8,2749.4 750.4,2750.5 763.6,2758.2 774.6,2761.5 780.1,2765.9 784.5,2770.3 786.7,2773.6 788.9,2776.9 790.0,2780.2 790.0,2784.6 787.8,2787.9 784.5" style="fill:none;stroke:#ffffff;stroke-width:2"/>
<polyline points="2798.9 722.9,2802.2 733.9,2803.3 739.4,2804.4 746.0,2805.5 753.7,2806.6 760.3,2807.7 773.5,2807.7 780.1,2808.8 790.0,2811.0 785.6,2813.2 780.1,2820.9 766.9,2825.3 760.3,2830.8 754.8,2844.0 743.8,2850.6 740.5,2857.2 738.3,2863.8 737.2,2869.3 736.1,2875.9 736.1,2885.8 738.3" style="fill:none;stroke:#ffffff;stroke-width:2"/>
<polyline points="2529.9 1078.9,2529.9 1081.9,2528.4 1103.8,2528.4 1112.6,2529.9 1159.5,2529.9 1168.3,2532.8 1177.0,2532.8 1185.8,2534.3 1193.1,2534.3 1201.9,2535.7 1209.3,2535.7 1216.6,2537.2 1248.8,2537.2 1254.6,2538.7 1272.2,2538.7 1275.1,2540.1 1282.5,2543.1 1282.5,2546.0 1283.9,2548.9 1283.9,2560.6 1285.4,2567.9 1285.4,2576.7 1286.8,2607.5 1289.8,2620.7 1289.8,2726.1 1289.8,2837.3 1289.8,2868.1 1291.2,2876.9 1291.2,2898.8 1292.7,2906.2 1292.7,3008.6 1292.7,3057.0 1294.2,3067.2 1294.2,3168.2 1294.2,3169.7 1292.7,3168.2 1288.3,3166.8 1286.8,3162.4 1281.0,3160.9 1278.1,3158.0 1273.7,3156.5 1270.7,3153.6 1266.4,3152.1 1262.0,3150.7 1256.1,3147.7 1251.7,3146.3 1245.9,3143.3 1240.0,3141.9 1232.7,3138.9 1226.8,3137.5 1219.5,3136.0 1213.6,3134.6 1206.3,3131.6 1193.1,3131.6 1185.8,3130.2 1180.0,3128.7 1172.6,3128.7 1166.8,3127.2 1160.9,3127.2 1155.1,3125.8 1150.7,3125.8 1144.8,3124.3 1133.1,3124.3 1128.7,3122.8 1095.1,3122.8 1090.7,3121.4 1081.9,3119.9 1076.0,3119.9 1073.1,3118.4 1071.6,3118.4 1068.7,3115.5 1068.7,3096.5 1070.2,3090.6 1070.2,3076.0 1071.6,3057.0 1073.1,3048.2 1073.1,3036.5 1074.6,3026.2 1074.6,3013.0 1076.0,2989.6 1080.4,2977.9 1081.9,2939.8 1087.7,2914.9 1090.7,2891.5 1092.1,2879.8 1093.6,2868.1 1093.6,2857.8 1095.1,2847.6 1095.1,2837.3 1096.5,2827.1 1096.5,2815.4 1098.0,2805.1 1098.0,2786.1 1099.4,2775.8 1100.9,2767.1 1102.4,2756.8 1103.8,2748.0 1105.3,2739.2 1105.3,2730.5 1106.8,2723.1 1106.8,2714.4 1108.2,2707.0 1108.2,2630.9 1106.8,2625.0 1106.8,2620.7 1105.3,2614.8 1105.3,2610.4 1103.8,2607.5 1103.8,2603.1 1102.4,2598.7 1102.4,2591.4 1100.9,2587.0 1100.9,2584.1 1099.4,2581.1 1099.4,2576.7 1098.0,2565.0 1095.1,2562.1 1093.6,2557.7 1093.6,2554.8 1092.1,2551.8 1092.1,2548.9 1090.7,2543.1 1089.2,2540.1 1087.7,2537.2 1087.7,2535.7 1086.3,2532.8 1086.3,2535.7 1087.7" style="fill:none;stroke:#ffffff;stroke-width:2"/>
<polyline points="2633.8 1158.0,2610.4 1159.5,2607.5 1162.4,2603.1 1165.3,2594.3 1172.6,2591.4 1177.0,2589.9 1182.9,2587.0 1188.8,2587.0 1196.1,2588.4 1223.9,2591.4 1229.7,2594.3 1234.1,2598.7 1238.5,2607.5 1244.4,2613.3 1245.9,2617.7 1247.3,2623.6 1247.3,2629.4 1245.9,2635.3 1242.9,2642.6 1238.5,2648.5 1234.1" style="fill:none;stroke:#ffffff;stroke-width:2"/>
<polyline points="2680.7 1250.2,2666.0 1256.1,2663.1 1256.1,2661.6 1253.2,2657.3 1247.3,2657.3 1237.1,2660.2 1221.0,2663.1 1216.6,2667.5 1213.6,2670.4 1210.7,2673.4 1209.3,2676.3 1209.3,2680.7 1210.7,2682.1 1215.1,2683.6 1225.4,2683.6 1232.7,2682.1 1253.2,2679.2 1256.1,2677.8 1259.0,2674.8 1251.7" style="fill:none;stroke:#ffffff;stroke-width:2"/>
<polyline points="2698.3 1200.5,2693.9 1215.1,2693.9 1219.5,2695.3 1256.1,2698.3 1251.7,2699.7 1247.3,2702.6 1240.0,2705.6 1234.1,2712.9 1218.0,2715.8 1216.6,2717.3 1215.1,2718.7 1218.0,2720.2 1223.9,2720.2 1231.2,2721.7 1238.5,2723.1 1253.2,2723.1 1260.5,2724.6 1266.4,2724.6 1270.7,2726.1 1275.1,2726.1 1264.9" style="fill:none;stroke:#ffffff;stroke-width:2"/>
<polyline points="2731.9 1212.2,2730.5 1223.9,2730.5 1226.8,2731.9 1235.6,2734.9 1240.0,2736.3 1245.9,2739.2 1254.6,2742.2 1262.0,2743.6 1264.9,2746.6 1264.9,2751.0 1256.1,2752.4 1251.7,2755.4 1245.9,2759.7 1234.1,2762.7 1229.7,2764.1 1225.4,2765.6 1222.4,2770.0 1219.5" style="fill:none;stroke:#ffffff;stroke-width:2"/>
<polyline points="2772.9 1240.0,2786.1 1238.5,2794.9 1235.6,2799.3 1232.7,2802.2 1229.7,2806.6 1223.9,2808.1 1219.5,2808.1 1216.6,2805.1 1209.3,2802.2 1207.8,2794.9 1206.3,2790.5 1206.3,2786.1 1207.8,2783.2 1212.2,2778.8 1216.6,2777.3 1222.4,2777.3 1228.3,2780.2 1245.9,2784.6 1251.7,2789.0 1256.1,2793.4 1259.0,2803.7 1262.0,2808.1 1263.4,2812.5 1263.4,2815.4 1262.0,2818.3 1259.0,2821.2 1253.2,2824.2 1241.5" style="fill:none;stroke:#ffffff;stroke-width:2"/>
<polyline points="2824.2 1197.5,2822.7 1209.3,2822.7 1215.1,2824.2 1221.0,2824.2 1228.3,2825.6 1259.0,2825.6 1262.0,2827.1 1254.6,2830.0 1248.8,2831.5 1242.9,2835.9 1235.6,2838.8 1229.7,2852.0 1210.7,2854.9 1209.3,2860.8 1207.8,2865.2 1207.8,2872.5 1209.3" style="fill:none;stroke:#ffffff;stroke-width:2"/>
<polyline points="2884.2 1153.6,2884.2 1159.5,2885.7 1163.9,2887.1 1169.7,2888.6 1177.0,2891.5 1193.1,2894.4 1203.4,2895.9 1212.2,2897.4 1222.4,2900.3 1240.0,2901.8 1254.6,2903.2 1259.0,2903.2 1262.0" style="fill:none;stroke:#ffffff;stroke-width:2"/>
<polyline points="2850.5 1191.7,2878.3 1196.1,2888.6 1196.1,2910.5 1194.6,2920.8 1194.6,2932.5 1193.1,2947.1 1193.1" style="fill:none;stroke:#ffffff;stroke-width:2"/>
<polyline points="2928.1 1219.5,2941.3 1219.5,2948.6 1218.0,2954.5 1216.6,2961.8 1213.6,2967.6 1212.2,2972.0 1209.3,2975.0 1206.3,2976.4 1201.9,2975.0 1200.5,2972.0 1199.0,2969.1 1199.0,2958.9 1200.5,2955.9 1203.4,2951.5 1210.7,2951.5 1216.6,2953.0 1232.7,2955.9 1237.1,2963.3 1244.4,2967.6 1245.9,2970.6 1247.3,2973.5 1247.3,2979.4 1244.4,2983.8 1237.1" style="fill:none;stroke:#ffffff;stroke-width:2"/>
<polyline points="2994.0 1196.1,2996.9 1209.3,2998.4 1216.6,2999.9 1232.7,2999.9 1253.2,2998.4 1263.4,2998.4 1260.5,2999.9 1248.8,3002.8 1240.0,3007.2 1231.2,3011.6 1223.9,3017.4 1216.6,3023.3 1210.7,3036.5 1204.9,3042.3 1204.9,3048.2 1207.8,3054.0 1219.5" style="fill:none;stroke:#ffffff;stroke-width:2"/>
<polyline points="1651.6 244.3,1649.6 236.3,1649.6 233.3,1655.6 229.3,1657.6 232.3,1657.6 237.3,1656.6 240.3,1654.6 242.3,1649.6 245.3,1645.6 245.3,1642.6 244.3,1640.6 241.3,1638.6 239.3,1637.6 237.3,1637.6 233.3,1640.6 232.3,1643.6 232.3,1651.6 233.3,1654.6 234.3,1655.6 237.3,1655.6 241.3,1654.6 245.3,1652.6 247.3,1650.6 248.3,1647.6 248.3,1646.6 245.3,1646.6 241.3,1647.6 229.3,1650.6 229.3,1652.6 231.3,1653.6 233.3,1655.6 240.3,1654.6 242.3,1652.6 244.3,1648.6 246.3,1645.6 247.3,1643.6 248.3,1640.6 247.3,1639.6 244.3,1639.6 240.3,1640.6 233.3,1643.6 231.3,1646.6 230.3,1650.6 229.3,1654.6 231.3,1656.6 233.3,1657.6 236.3,1657.6 239.3,1656.6 243.3,1654.6 244.3,1652.6 246.3,1647.6 250.3,1644.6 250.3,1642.6 249.3,1641.6 246.3,1641.6 240.3,1642.6 235.3,1644.6 233.3,1648.6 233.3,1649.6 236.3,1650.6 240.3,1650.6 245.3,1648.6 246.3,1646.6 242.3,1646.6 236.3,1649.6 234.3,1653.6 235.3,1654.6 238.3,1654.6 242.3,1653.6 246.3,1649.6 246.3,1648.6 243.3,1648.6 239.3,1649.6 237.3,1652.6 236.3,1652.6 241.3,1650.6 243.3,1647.6 244.3,1646.6 241.3,1643.6 241.3,1629.6 242.3,1625.6 242.3,1621.6 243.3,1618.6 244.3,1612.6 245.3,1609.6 246.3,1604.6 246.3,1600.6 247.3,1596.6 247.3,1589.6 248.3,1586.6 248.3,1581.6 249.3,1577.6 250.3,1573.6 250.3,1571.6 251.3,1567.6 252.3,1561.6 253.3,1556.6 254.3,1553.6 254.3,1549.6 255.3,1546.6 255.3,1543.6 256.3,1539.6 257.3,1536.6 257.3,1533.6 258.3,1528.6 259.3,1524.6 260.3,1519.6 260.3,1516.6 261.3,1512.6 262.3,1509.6 262.3,1507.6 263.3,1504.6 264.3,1500.6 264.3,1497.6 265.3,1495.6 266.3,1491.6 267.3,1486.6 268.3,1479.6 269.3,1474.6 270.3,1471.6 271.3,1467.6 271.3,1465.6 272.3,1461.6 273.3,1457.6 273.3,1455.6 274.3,1451.6 275.3,1447.6 275.3,1445.6 276.3,1442.6 276.3,1439.6 277.3,1436.6 277.3,1433.6 278.3,1424.6 280.3,1419.6 281.3,1417.6 282.3,1412.6 283.3,1408.6 284.3,1405.6 284.3,1402.6 285.3,1398.6 286.3,1368.6 292.3,1364.6 293.3,1359.6 294.3,1254.6 314.3,1251.6 315.3,1247.6 315.3,1244.6 316.3,1235.6 318.3,1232.6 319.3,1230.6 320.3,1227.6 320.3,1225.6 321.3,1220.6 322.3,1216.6 323.3,1211.6 324.3,1206.6 324.3,1203.6 325.3,1199.6 325.3,1196.6 326.3,1191.6 326.3,1189.6 327.3,1184.6 327.3,1173.6 328.3,1170.6 328.3,1162.6 329.3,1158.6 329.3,1154.6 330.3,1149.6 330.3,1144.6 331.3,1141.6 331.3,1136.6 332.3,1131.6 332.3,1129.6 333.3,1125.6 333.3,1122.6 334.3,1118.6 334.3,1115.6 335.3,1111.6 335.3,1109.6 336.3,1105.6 336.3,1102.6 337.3,1098.6 337.3,1092.6 338.3,1088.6 338.3,1082.6 339.3,1078.6 339.3,1072.6 340.3,1068.6 340.3,1064.6 341.3,1059.6 341.3,1055.6 342.3,1049.6 343.3,1046.6 344.3,1042.6 344.3,1039.6 345.3,1035.6 345.3,1028.6 346.3,1025.6 346.3,1020.6 347.3,1016.6 347.3,1018.6 345.3,1020.6 344.3,1022.6 342.3,1026.6 339.3,1028.6 338.3,1031.6 335.3,1033.6 334.3,1036.6 331.3,1038.6 330.3,1041.6 327.3,1045.6 324.3,1047.6 322.3,1046.6 324.3,1044.6 325.3,1043.6 327.3,1040.6 330.3,1035.6 334.3,1033.6 337.3,1030.6 339.3,1028.6 341.3,1025.6 343.3,1021.6 347.3,1022.6 349.3,1024.6 350.3,1029.6 351.3,1031.6 352.3,1034.6 352.3,1037.6 353.3,1042.6 354.3,1046.6 355.3,1049.6 356.3,1053.6 356.3" style="fill:none;stroke:#ff5959;stroke-width:2"/>
<polyline points="1137.6 295.3,1140.6 295.3,1144.6 294.3,1149.6 291.3,1151.6 290.3,1152.6 288.3,1152.6 285.3,1151.6 281.3,1149.6 280.3,1146.6 279.3,1142.6 279.3,1138.6 280.3,1136.6 281.3,1134.6 283.3,1131.6 288.3,1130.6 291.3,1130.6 294.3,1132.6 306.3,1134.6 308.3,1136.6 309.3,1140.6 310.3,1142.6 311.3,1148.6 310.3,1150.6 307.3" style="fill:none;stroke:#ff5959;stroke-width:2"/>
<polyline points="1156.6 278.3,1157.6 281.3,1159.6 283.3,1160.6 285.3,1162.6 287.3,1166.6 290.3,1168.6 292.3,1174.6 298.3" style="fill:none;stroke:#ff5959;stroke-width:2"/>
<polyline points="1157.6 307.3,1159.6 299.3,1161.6 296.3,1162.6 293.3,1164.6 290.3,1165.6 287.3,1168.6 281.3,1169.6 278.3,1171.6 276.3,1172.6 274.3,1174.6 271.3" style="fill:none;stroke:#ff5959;stroke-width:2"/>
<polyline points="1177.6 286.3,1181.6 285.3,1183.6 284.3,1187.6 283.3,1190.6 281.3,1189.6 277.3,1186.6 277.3,1180.6 278.3,1179.6 280.3,1177.6 282.3,1176.6 285.3,1176.6 288.3,1175.6 291.3,1175.6 294.3,1176.6 299.3,1178.6 301.3,1183.6 304.3,1187.6 304.3,1192.6 301.3" style="fill:none;stroke:#ff5959;stroke-width:2"/>
<polyline points="1210.6 278.3,1203.6 279.3,1200.6 283.3,1198.6 286.3,1198.6 289.3,1197.6 295.3,1198.6 298.3,1200.6 299.3,1203.6 300.3,1207.6 300.3,1211.6 299.3,1213.6 298.3,1216.6 295.3,1220.6 288.3,1221.6 283.3" style="fill:none;stroke:#ff5959;stroke-width:2"/>
<polyline points="1219.6 266.3,1219.6 275.3,1220.6 292.3,1221.6 294.3,1223.6 295.3,1227.6 292.3,1228.6 290.3,1229.6 287.3,1232.6 276.3,1232.6 273.3,1232.6 266.3" style="fill:none;stroke:#ff5959;stroke-width:2"/>
<polyline points="1237.6 245.3,1235.6 252.3,1235.6 256.3,1237.6 280.3,1237.6 283.3,1238.6 285.3,1240.6 287.3" style="fill:none;stroke:#ff5959;stroke-width:2"/>
<polyline points="1226.6 261.3,1229.6 262.3,1232.6 262.3,1234.6 262.3,1238.6 262.3,1241.6 262.3,1245.6 262.3" style="fill:none;stroke:#ff5959;stroke-width:2"/>
<polyline points="1253.6 266.3,1253.6 280.3,1254.6 283.3,1254.6 286.3,1255.6 293.3,1256.6 294.3,1257.6 292.3" style="fill:none;stroke:#ff5959;stroke-width:2"/>
<polyline points="1255.6 249.3,1261.6 257.3,1263.6 260.3" style="fill:none;stroke:#ff5959;stroke-width:2"/>
<polyline points="1276.6 283.3,1270.6 284.3,1266.6 279.3,1266.6 275.3,1268.6 270.3,1270.6 267.3,1272.6 266.3,1277.6 264.3,1279.6 265.3,1280.6 268.3,1280.6 271.3,1279.6 282.3,1278.6 286.3,1276.6 288.3,1273.6 292.3,1272.6 290.3,1272.6 285.3,1275.6 278.3" style="fill:none;stroke:#ff5959;stroke-width:2"/>
<polyline points="1285.6 262.3,1285.6 271.3,1287.6 288.3,1289.6 285.3,1292.6 282.3,1295.6 278.3,1301.6 271.3,1304.6 269.3,1306.6 267.3,1309.6 267.3,1309.6 271.3,1308.6 289.3,1309.6 287.3" style="fill:none;stroke:#ff5959;stroke-width:2"/>
<polyline points="1358.6 255.3,1357.6 253.3,1354.6 253.3,1341.6 254.3,1339.6 255.3,1336.6 256.3,1334.6 258.3,1333.6 261.3,1335.6 262.3,1343.6 263.3,1347.6 263.3,1359.6 265.3,1359.6 269.3,1357.6 272.3,1354.6 275.3,1347.6 281.3,1345.6 283.3,1345.6 277.3,1350.6 268.3" style="fill:none;stroke:#ff5959;stroke-width:2"/>
<polyline points="1366.6 220.3,1366.6 225.3,1367.6 253.3,1367.6 257.3,1368.6 260.3,1371.6 267.3" style="fill:none;stroke:#ff5959;stroke-width:2"/>
<polyline points="1351.6 248.3,1361.6 243.3,1365.6 242.3,1371.6 240.3,1377.6 239.3,1382.6 238.3,1389.6 237.3,1398.6 237.3" style="fill:none;stroke:#ff5959;stroke-width:2"/>
<polyline points="1388.6 262.3,1385.6 266.3,1380.6 262.3,1380.6 258.3,1382.6 250.3,1384.6 249.3,1386.6 247.3,1388.6 246.3,1391.6 246.3,1393.6 248.3,1394.6 250.3,1394.6 255.3,1393.6 263.3,1391.6 265.3,1390.6 262.3,1391.6 257.3,1392.6 254.3,1394.6 249.3,1394.6 246.3,1395.6 243.3,1395.6 246.3,1396.6 255.3,1396.6 258.3,1397.6 260.3,1398.6 264.3,1399.6 266.3,1401.6 264.3" style="fill:none;stroke:#ff5959;stroke-width:2"/>
<polyline points="1408.6 238.3,1408.6 245.3,1409.6 248.3,1409.6 251.3,1410.6 257.3,1410.6 262.3,1411.6 257.3,1412.6 254.3,1415.6 246.3,1417.6 244.3,1419.6 244.3" style="fill:none;stroke:#ff5959;stroke-width:2"/>
<polyline points="1428.6 208.3,1428.6 219.3,1429.6 242.3,1430.6 247.3,1431.6 251.3,1431.6 254.3,1433.6 256.3,1433.6 258.3" style="fill:none;stroke:#ff5959;stroke-width:2"/>
<polyline points="1412.6 234.3,1421.6 234.3,1426.6 234.3,1431.6 234.3,1436.6 232.3,1447.6 229.3,1456.6 225.3" style="fill:none;stroke:#ff5959;stroke-width:2"/>
<polyline points="1457.6 230.3,1446.6 234.3,1444.6 235.3,1439.6 237.3,1440.6 239.3,1443.6 240.3,1450.6 241.3,1453.6 242.3,1457.6 242.3,1459.6 243.3,1461.6 246.3,1459.6 248.3,1456.6 250.3,1449.6 253.3,1444.6 253.3,1437.6 252.3" style="fill:none;stroke:#ff5959;stroke-width:2"/>
<polyline points="600.6 487.3,599.6 491.3,598.6 494.3,597.6 498.3,597.6 502.3,596.6 504.3,596.6 507.3,595.6 509.3,595.6 512.3,594.6 520.3,594.6 523.3,593.6 555.3,593.6 558.3,592.6 564.3,592.6 568.3,593.6 610.3,594.6 613.3,594.6 617.3,595.6 620.3,595.6 625.3,596.6 629.3,597.6 631.3,598.6 636.3,598.6 639.3,599.6 641.3,599.6 644.3,600.6 646.3,601.6 651.3,602.6 654.3,604.6 659.3,605.6 662.3,606.6 666.3,607.6 669.3,607.6 672.3,609.6 675.3,610.6 678.3,612.6 682.3,613.6 685.3,614.6 687.3,616.6 690.3,617.6 692.3,618.6 695.3,620.6 697.3,621.6 699.3,622.6 702.3,624.6 705.3,625.6 708.3,622.6 707.3,619.6 705.3,617.6 704.3,614.6 702.3,612.6 700.3,609.6 698.3,607.6 696.3,601.6 692.3,602.6 695.3,604.6 697.3,605.6 699.3,607.6 700.3,609.6 702.3,612.6 704.3,614.6 705.3,617.6 706.3,621.6 706.3,624.6 704.3,625.6 702.3,627.6 696.3,628.6 694.3,630.6 688.3,631.6 686.3,631.6 682.3" style="fill:none;stroke:#ff9500;stroke-width:2"/>
<polyline points="625.6 561.3,609.6 562.3,605.6 567.3,604.6 571.3,604.6 574.3,605.6 583.3,607.6 584.3,612.6 584.3,618.6 583.3,620.6 582.3,622.6 580.3" style="fill:none;stroke:#ff9500;stroke-width:2"/>
<polyline points="629.6 552.3,629.6 555.3,628.6 563.3,628.6 566.3,629.6 581.3,630.6 585.3,630.6 582.3" style="fill:none;stroke:#ff9500;stroke-width:2"/>
<polyline points="622.6 561.3,623.6 564.3,628.6 565.3,637.6 565.3,639.6 565.3,641.6 565.3" style="fill:none;stroke:#ff9500;stroke-width:2"/>
<polyline points="644.6 563.3,642.6 571.3,641.6 573.3,641.6 578.3,643.6 574.3,648.6 567.3,652.6 566.3,654.6 566.3" style="fill:none;stroke:#ff9500;stroke-width:2"/>
<polyline points="656.6 548.3,656.6 556.3,657.6 579.3,657.6 582.3,663.6 587.3" style="fill:none;stroke:#ff9500;stroke-width:2"/>
<polyline points="677.6 565.3,676.6 567.3,676.6 570.3,676.6 583.3" style="fill:none;stroke:#ff9500;stroke-width:2"/>
<polyline points="670.6 572.3,675.6 574.3,677.6 574.3,680.6 574.3,682.6 574.3,686.6 574.3,690.6 572.3" style="fill:none;stroke:#ff9500;stroke-width:2"/>
<polyline points="707.6 560.3,701.6 562.3,699.6 564.3,697.6 567.3,694.6 573.3,693.6 576.3,693.6 580.3,696.6 589.3,698.6 590.3,701.6 590.3,709.6 588.3,711.6 586.3" style="fill:none;stroke:#ff9500;stroke-width:2"/>
<polyline points="829.6 908.3,831.6 911.3,833.6 913.3,836.6 914.3,840.6 916.3,843.6 917.3,847.6 918.3,851.6 920.3,854.6 921.3,858.6 922.3,861.6 923.3,863.6 924.3,866.6 926.3,869.6 927.3,874.6 930.3,877.6 931.3,882.6 933.3,885.6 934.3,887.6 935.3,890.6 936.3,893.6 936.3,899.6 938.3,902.6 938.3,905.6 939.3,908.6 939.3,912.6 940.3,915.6 940.3,922.6 941.3,925.6 941.3,930.6 942.3,938.6 943.3,942.6 944.3,945.6 944.3,949.6 945.3,952.6 945.3,956.6 946.3,959.6 946.3,966.6 947.3,970.6 947.3,978.6 948.3,981.6 948.3,987.6 949.3,992.6 949.3,1033.6 948.3,1037.6 948.3,1040.6 947.3,1045.6 946.3,1044.6 944.3,1042.6 942.3,1041.6 940.3,1039.6 938.3,1036.6 936.3,1034.6 934.3,1032.6 931.3,1030.6 929.3,1032.6 931.3,1035.6 933.3,1039.6 936.3,1041.6 937.3,1043.6 939.3,1044.6 942.3,1044.6 945.3,1043.6 948.3,1041.6 952.3,1035.6 959.3" style="fill:none;stroke:#ffa651;stroke-width:2"/>
<polyline points="889.6 961.3,880.6 963.3,877.6 966.3,876.6 969.3,874.6 972.3,874.6 976.3,873.6 979.3,873.6 983.3,874.6 990.3,878.6 991.3,881.6 991.3,883.6 990.3,887.6 989.3,889.6 988.3,893.6 985.3,896.6 983.3" style="fill:none;stroke:#ffa651;stroke-width:2"/>
<polyline points="910.6 983.3,905.6 990.3,901.6 989.3,900.6 987.3,899.6 982.3,899.6 979.3,900.6 971.3,903.6 967.3,906.6 966.3,909.6 968.3,910.6 970.3,911.6 975.3,911.6 980.3,910.6 987.3,909.6 985.3,909.6 981.3" style="fill:none;stroke:#ffa651;stroke-width:2"/>
<polyline points="929.6 987.3,926.6 991.3,924.6 990.3,923.6 987.3,922.6 982.3,922.6 979.3,923.6 969.3,924.6 967.3,927.6 966.3,929.6 971.3,930.6 975.3,930.6 978.3,929.6 994.3,927.6 996.3,925.6 993.3,924.6 991.3,923.6 988.3,923.6 985.3,922.6 983.3,922.6 987.3,921.6 992.3,921.6 997.3,923.6 1009.3,926.6 1002.3" style="fill:none;stroke:#ffa651;stroke-width:2"/>
<polyline points="937.6 971.3,937.6 980.3,939.6 986.3,939.6 989.3,941.6 991.3,942.6 995.3,944.6 998.3,946.6 997.3,950.6 992.3,952.6 988.3,955.6 984.3,957.6 981.3,959.6 977.3,961.6 975.3,962.6 973.3,961.6 982.3,958.6 990.3,951.6 1005.3,948.6 1012.3,946.6 1016.3,942.6 1023.3,941.6 1025.3,942.6 1020.3" style="fill:none;stroke:#ffa651;stroke-width:2"/>
<polyline points="1303.6 969.3,1308.6 971.3,1313.6 972.3,1317.6 973.3,1320.6 974.3,1324.6 975.3,1328.6 975.3,1331.6 976.3,1335.6 977.3,1338.6 977.3,1342.6 978.3,1345.6 978.3,1348.6 979.3,1351.6 979.3,1361.6 980.3,1365.6 980.3,1387.6 981.3,1391.6 981.3,1400.6 982.3,1403.6 982.3,1406.6 983.3,1410.6 983.3,1419.6 984.3,1425.6 984.3,1428.6 985.3,1431.6 985.3,1516.6 983.3,1519.6 983.3,1528.6 982.3,1531.6 982.3,1542.6 981.3,1545.6 981.3,1553.6 980.3,1560.6 980.3,1563.6 979.3,1567.6 979.3,1579.6 978.3,1583.6 978.3,1581.6 975.3,1579.6 974.3,1577.6 972.3,1574.6 968.3,1571.6 967.3,1569.6 965.3,1571.6 968.3,1576.6 971.3,1578.6 973.3,1581.6 975.3,1583.6 977.3,1586.6 979.3,1588.6 981.3,1586.6 983.3,1585.6 985.3,1583.6 987.3,1581.6 991.3,1579.6 992.3,1578.6 994.3,1576.6 1000.3" style="fill:none;stroke:#fff338;stroke-width:2"/>
<polyline points="1350.6 1015.3,1340.6 1019.3,1340.6 1032.3,1343.6 1032.3,1347.6 1033.3,1352.6 1032.3,1355.6 1031.3" style="fill:none;stroke:#fff338;stroke-width:2"/>
<polyline points="1369.6 1031.3,1363.6 1023.3,1364.6 1017.3,1365.6 1015.3,1367.6 1014.3,1371.6 1013.3,1373.6 1015.3,1375.6 1018.3,1376.6 1023.3,1376.6 1027.3,1375.6 1036.3,1374.6 1032.3,1374.6 1029.3" style="fill:none;stroke:#fff338;stroke-width:2"/>
<polyline points="1396.6 1028.3,1394.6 1033.3,1391.6 1033.3,1390.6 1029.3,1390.6 1022.3,1393.6 1013.3,1395.6 1016.3,1396.6 1021.3,1396.6 1024.3,1395.6 1032.3,1393.6 1034.3,1389.6 1032.3,1388.6 1029.3,1387.6 1025.3,1386.6 1022.3,1386.6 1030.3,1387.6 1035.3,1387.6 1039.3,1388.6 1042.3,1388.6 1045.3,1389.6 1048.3,1390.6 1050.3,1392.6 1053.3,1396.6 1045.3" style="fill:none;stroke:#fff338;stroke-width:2"/>
<polyline points="1407.6 1023.3,1407.6 1033.3,1408.6 1041.3,1410.6 1042.3" style="fill:none;stroke:#fff338;stroke-width:2"/>
<polyline points="1408.6 1009.3,1407.6 1017.3,1411.6 1021.3" style="fill:none;stroke:#fff338;stroke-width:2"/>
<polyline points="1418.6 1030.3,1424.6 1034.3,1429.6 1027.3,1421.6 1027.3,1419.6 1030.3,1418.6 1034.3,1418.6 1038.3,1419.6 1042.3,1421.6 1045.3,1425.6 1046.3,1429.6 1046.3,1431.6 1044.3,1435.6 1039.3" style="fill:none;stroke:#fff338;stroke-width:2"/>
<polyline points="1446.6 1010.3,1447.6 1012.3,1447.6 1015.3,1448.6 1024.3,1448.6 1028.3,1449.6 1031.3,1449.6 1034.3,1448.6 1043.3,1445.6 1044.3,1441.6 1041.3,1440.6 1038.3,1440.6 1035.3,1443.6 1032.3,1448.6 1030.3,1452.6 1030.3,1456.6 1030.3" style="fill:none;stroke:#fff338;stroke-width:2"/>
<polyline points="1413.6 1064.3,1414.6 1075.3,1416.6 1082.3,1416.6 1086.3,1418.6 1092.3,1419.6 1093.3" style="fill:none;stroke:#fff338;stroke-width:2"/>
<polyline points="1407.6 1075.3,1417.6 1076.3,1421.6 1076.3,1424.6 1075.3,1427.6 1075.3,1434.6 1074.3" style="fill:none;stroke:#fff338;stroke-width:2"/>
<polyline points="1428.6 1083.3,1438.6 1084.3,1444.6 1083.3,1444.6 1080.3,1445.6 1077.3,1442.6 1073.3,1440.6 1075.3,1439.6 1080.3,1439.6 1083.3,1440.6 1091.3,1441.6 1093.3,1445.6 1097.3,1450.6 1100.3,1455.6 1100.3,1459.6 1097.3" style="fill:none;stroke:#fff338;stroke-width:2"/>
<polyline points="1460.6 1081.3,1461.6 1089.3,1462.6 1091.3,1463.6 1094.3,1465.6 1099.3,1467.6 1103.3,1467.6 1105.3" style="fill:none;stroke:#fff338;stroke-width:2"/>
<polyline points="1458.6 1096.3,1467.6 1085.3,1470.6 1081.3,1471.6 1077.3,1473.6 1073.3,1474.6 1070.3,1476.6 1067.3,1477.6 1064.3" style="fill:none;stroke:#fff338;stroke-width:2"/>
<polyline points="1489.6 1048.3,1489.6 1059.3,1489.6 1087.3,1489.6 1091.3,1489.6 1096.3,1488.6 1099.3" style="fill:none;stroke:#fff338;stroke-width:2"/>
<polyline points="1476.6 1077.3,1483.6 1077.3,1489.6 1076.3,1498.6 1073.3,1513.6 1069.3" style="fill:none;stroke:#fff338;stroke-width:2"/>
<polyline points="2216.6 945.3,2222.6 944.3,2224.6 943.3,2227.6 942.3,2240.6 937.3,2257.6 930.3,2261.6 929.3,2265.6 927.3,2269.6 926.3,2273.6 924.3,2276.6 923.3,2285.6 919.3,2288.6 918.3,2293.6 916.3,2296.6 915.3,2299.6 913.3,2302.6 912.3,2306.6 911.3,2309.6 910.3,2311.6 908.3,2314.6 907.3,2318.6 906.3,2321.6 905.3,2324.6 903.3,2329.6 901.3,2332.6 900.3,2337.6 898.3,2339.6 897.3,2343.6 896.3,2345.6 895.3,2348.6 894.3,2350.6 892.3,2353.6 891.3,2355.6 890.3,2364.6 886.3,2367.6 885.3,2371.6 883.3,2374.6 882.3,2377.6 880.3,2381.6 879.3,2383.6 878.3,2386.6 877.3,2390.6 875.3,2394.6 874.3,2397.6 873.3,2401.6 871.3,2404.6 870.3,2408.6 870.3,2410.6 868.3,2406.6 868.3,2403.6 867.3,2400.6 867.3,2398.6 866.3,2393.6 866.3,2390.6 867.3,2394.6 867.3,2397.6 868.3,2401.6 868.3,2404.6 869.3,2407.6 869.3,2409.6 870.3,2409.6 873.3,2407.6 876.3,2406.6 879.3,2404.6 881.3,2403.6 883.3,2403.6 886.3,2402.6 888.3,2401.6 892.3,2399.6 892.3" style="fill:none;stroke:#fff338;stroke-width:2"/>
<polyline points="2548.6 929.3,2547.6 937.3,2548.6 941.3,2550.6 943.3,2553.6 949.3,2554.6 952.3,2555.6 954.3,2556.6 957.3,2557.6 963.3,2558.6 966.3,2560.6 969.3,2561.6 972.3,2563.6 979.3,2564.6 982.3,2566.6 985.3,2567.6 989.3,2568.6 994.3,2569.6 997.3,2571.6 1002.3,2571.6 1005.3,2572.6 1007.3,2573.6 1012.3,2574.6 1016.3,2575.6 1019.3,2576.6 1023.3,2577.6 1026.3,2578.6 1028.3,2579.6 1032.3,2580.6 1034.3,2581.6 1038.3,2581.6 1041.3,2582.6 1043.3,2583.6 1048.3,2584.6 1056.3,2585.6 1060.3,2586.6 1063.3,2587.6 1065.3,2588.6 1069.3,2590.6 1075.3,2591.6 1080.3,2588.6 1078.3,2586.6 1077.3,2582.6 1076.3,2580.6 1075.3,2573.6 1071.3,2571.6 1070.3,2568.6 1068.3,2566.6 1066.3,2568.6 1068.3,2570.6 1069.3,2577.6 1071.3,2581.6 1073.3,2586.6 1076.3,2589.6 1077.3,2592.6 1075.3,2593.6 1073.3,2595.6 1071.3,2596.6 1068.3,2599.6 1063.3,2600.6 1060.3,2602.6 1057.3,2603.6 1055.3,2605.6 1050.3,2606.6 1047.3,2607.6 1044.3" style="fill:none;stroke:#61ff6f;stroke-width:2"/>
<polyline points="2584.6 979.3,2584.6 964.3,2583.6 955.3,2583.6 949.3,2584.6 942.3,2586.6 941.3,2589.6 941.3,2593.6 943.3,2595.6 945.3,2596.6 947.3,2600.6 950.3,2601.6 952.3,2602.6 955.3,2602.6 959.3,2601.6 962.3,2599.6 963.3,2594.6 965.3,2591.6 966.3,2588.6 966.3,2587.6 963.3,2588.6 960.3" style="fill:none;stroke:#61ff6f;stroke-width:2"/>
<polyline points="2611.6 981.3,2608.6 982.3,2603.6 972.3,2608.6 966.3,2610.6 967.3,2611.6 971.3,2612.6 973.3,2612.6 978.3,2613.6 976.3,2616.6 972.3,2617.6 969.3,2618.6 967.3,2619.6 964.3,2620.6 962.3,2622.6 959.3,2622.6 962.3,2623.6 974.3,2624.6 976.3,2626.6 976.3" style="fill:none;stroke:#61ff6f;stroke-width:2"/>
<polyline points="2636.6 955.3,2636.6 959.3,2635.6 961.3,2635.6 964.3,2634.6 966.3,2633.6 969.3,2633.6 972.3,2632.6 977.3,2633.6 973.3,2634.6 970.3,2635.6 968.3,2637.6 963.3,2638.6 961.3,2640.6 959.3,2643.6 960.3" style="fill:none;stroke:#61ff6f;stroke-width:2"/>
<polyline points="2665.6 955.3,2659.6 954.3,2651.6 955.3,2650.6 957.3,2655.6 961.3,2657.6 962.3,2660.6 963.3,2660.6 967.3,2659.6 969.3,2658.6 972.3,2653.6 976.3,2651.6 978.3,2649.6 979.3,2646.6 981.3,2645.6 979.3,2646.6 974.3" style="fill:none;stroke:#61ff6f;stroke-width:2"/>
<polyline points="2660.6 962.3,2667.6 962.3,2675.6 960.3,2677.6 958.3,2677.6 952.3,2675.6 951.3,2672.6 953.3,2669.6 956.3,2668.6 959.3,2668.6 962.3,2667.6 967.3,2667.6 970.3,2669.6 977.3,2671.6 978.3,2674.6 979.3,2677.6 979.3,2678.6 976.3" style="fill:none;stroke:#61ff6f;stroke-width:2"/>
<polyline points="2692.6 934.3,2694.6 942.3,2694.6 945.3,2693.6 973.3,2693.6 976.3,2692.6 978.3,2689.6 980.3,2686.6 979.3,2684.6 976.3,2684.6 973.3,2685.6 968.3,2686.6 966.3,2688.6 965.3,2690.6 963.3,2692.6 962.3,2695.6 962.3,2697.6 961.3,2701.6 961.3,2704.6 963.3,2706.6 967.3" style="fill:none;stroke:#61ff6f;stroke-width:2"/>
<polyline points="2595.6 1006.3,2599.6 1005.3,2604.6 1007.3,2606.6 1011.3,2608.6 1020.3,2608.6 1023.3,2609.6 1033.3" style="fill:none;stroke:#61ff6f;stroke-width:2"/>
<polyline points="2593.6 1007.3,2604.6 1006.3,2608.6 1006.3,2619.6 1005.3,2623.6 1005.3,2626.6 1005.3,2630.6 1005.3" style="fill:none;stroke:#61ff6f;stroke-width:2"/>
<polyline points="2619.6 1023.3,2629.6 1024.3,2632.6 1023.3,2635.6 1021.3,2639.6 1014.3,2635.6 1011.3,2632.6 1011.3,2628.6 1013.3,2624.6 1018.3,2624.6 1021.3,2625.6 1027.3,2626.6 1029.3,2628.6 1030.3,2631.6 1032.3,2634.6 1033.3,2639.6 1029.3" style="fill:none;stroke:#61ff6f;stroke-width:2"/>
<polyline points="2649.6 1017.3,2654.6 1026.3,2655.6 1028.3,2657.6 1030.3,2659.6 1033.3,2661.6 1035.3" style="fill:none;stroke:#61ff6f;stroke-width:2"/>
<polyline points="2637.6 1038.3,2646.6 1028.3,2649.6 1025.3,2651.6 1022.3,2656.6 1014.3,2658.6 1013.3,2659.6 1010.3,2660.6 1007.3" style="fill:none;stroke:#61ff6f;stroke-width:2"/>
<polyline points="2669.6 993.3,2669.6 1001.3,2670.6 1004.3,2670.6 1007.3,2671.6 1011.3,2671.6 1015.3,2671.6 1035.3" style="fill:none;stroke:#61ff6f;stroke-width:2"/>
<polyline points="2662.6 1014.3,2678.6 1012.3,2684.6 1011.3,2693.6 1009.3,2705.6 1007.3" style="fill:none;stroke:#61ff6f;stroke-width:2"/>
<polyline points="2948.6 1063.3,2947.6 1057.3,2945.6 1052.3,2944.6 1050.3,2942.6 1045.3,2941.6 1043.3,2940.6 1040.3,2939.6 1038.3,2935.6 1028.3,2934.6 1026.3,2932.6 1020.3,2931.6 1018.3,2929.6 1013.3,2928.6 1010.3,2927.6 1006.3,2926.6 1003.3,2925.6 998.3,2924.6 996.3,2923.6 993.3,2922.6 991.3,2921.6 987.3,2920.6 985.3,2919.6 981.3,2918.6 979.3,2917.6 976.3,2916.6 971.3,2915.6 968.3,2913.6 963.3,2912.6 961.3,2911.6 957.3,2910.6 955.3,2909.6 951.3,2908.6 948.3,2906.6 944.3,2905.6 941.3,2904.6 936.3,2903.6 934.3,2901.6 928.3,2899.6 925.3,2898.6 922.3,2896.6 918.3,2895.6 915.3,2893.6 918.3,2890.6 922.3,2889.6 924.3,2886.6 929.3,2885.6 931.3,2884.6 934.3,2885.6 931.3,2888.6 927.3,2889.6 925.3,2892.6 922.3,2893.6 920.3,2895.6 917.3,2896.6 915.3,2900.6 916.3,2903.6 918.3,2905.6 919.3,2908.6 921.3,2910.6 922.3,2912.6 924.3,2914.6 925.3,2917.6 927.3,2919.6 928.3,2922.6 929.3" style="fill:none;stroke:#54ffec;stroke-width:2"/>
<polyline points="2937.6 956.3,2937.6 962.3,2938.6 969.3,2939.6 972.3,2940.6 976.3,2940.6 979.3,2941.6 982.3,2941.6 986.3,2942.6 986.3" style="fill:none;stroke:#54ffec;stroke-width:2"/>
<polyline points="2937.6 956.3,2955.6 957.3,2958.6 956.3,2961.6 956.3,2963.6 956.3,2965.6 956.3" style="fill:none;stroke:#54ffec;stroke-width:2"/>
<polyline points="2946.6 967.3,2953.6 966.3,2956.6 966.3,2959.6 965.3,2966.6 964.3,2971.6 963.3" style="fill:none;stroke:#54ffec;stroke-width:2"/>
<polyline points="2974.6 986.3,2969.6 984.3,2969.6 980.3,2970.6 976.3,2973.6 973.3,2974.6 971.3,2977.6 970.3,2979.6 973.3,2979.6 977.3,2978.6 984.3,2977.6 986.3,2975.6 988.3,2973.6 989.3,2972.6 986.3" style="fill:none;stroke:#54ffec;stroke-width:2"/>
<polyline points="2983.6 964.3,2985.6 974.3,2986.6 976.3,2986.6 980.3,2987.6 988.3,2988.6 986.3,2991.6 979.3,2994.6 976.3,2995.6 973.3,2997.6 971.3,2998.6 969.3,3001.6 969.3" style="fill:none;stroke:#54ffec;stroke-width:2"/>
<polyline points="3004.6 968.3,3004.6 978.3,3005.6 995.3,3007.6 994.3,3008.6 991.3,3011.6 979.3,3013.6 976.3,3014.6 974.3,3016.6 971.3,3017.6 973.3,3017.6 977.3,3018.6 984.3,3019.6 982.3,3020.6 979.3,3022.6 977.3,3023.6 975.3,3025.6 973.3,3028.6 975.3,3029.6 979.3,3029.6 983.3,3030.6 986.3,3033.6 987.3" style="fill:none;stroke:#54ffec;stroke-width:2"/>
<polyline points="3043.6 986.3,3036.6 983.3,3035.6 978.3,3036.6 973.3,3039.6 971.3,3043.6 972.3,3044.6 976.3,3045.6 978.3,3045.6 982.3,3046.6 984.3,3047.6 980.3,3048.6 977.3,3049.6 975.3,3049.6 971.3,3051.6 972.3,3052.6 974.3,3052.6 977.3,3053.6 979.3,3054.6 982.3,3055.6 984.3,3056.6 987.3,3059.6 989.3" style="fill:none;stroke:#54ffec;stroke-width:2"/>
<polyline points="3063.6 946.3,3066.6 956.3,3067.6 960.3,3069.6 969.3,3070.6 973.3,3072.6 980.3,3073.6 983.3,3073.6 987.3" style="fill:none;stroke:#54ffec;stroke-width:2"/>
<polyline points="3054.6 965.3,3064.6 966.3,3067.6 966.3,3070.6 966.3,3075.6 966.3,3081.6 966.3" style="fill:none;stroke:#54ffec;stroke-width:2"/>
<polyline points="3082.6 951.3,3085.6 962.3,3085.6 966.3,3086.6 973.3,3087.6 976.3,3087.6 979.3,3088.6 982.3,3089.6 985.3" style="fill:none;stroke:#54ffec;stroke-width:2"/>
<polyline points="3083.6 968.3,3095.6 968.3,3100.6 967.3,3106.6 967.3,3112.6 966.3,3118.6 966.3,3125.6 966.3" style="fill:none;stroke:#54ffec;stroke-width:2"/>
<polyline points="3112.6 971.3,3116.6 971.3,3122.6 972.3,3126.6 965.3,3124.6 964.3,3121.6 963.3,3119.6 962.3,3115.6 962.3,3110.6 964.3,3109.6 966.3,3108.6 971.3,3108.6 974.3,3109.6 982.3,3111.6 985.3,3113.6 987.3,3115.6 988.3,3120.6 989.3,3123.6 989.3" style="fill:none;stroke:#54ffec;stroke-width:2"/>
<polyline points="3133.6 948.3,3135.6 957.3,3138.6 965.3,3139.6 974.3,3140.6 978.3,3140.6 982.3,3139.6 991.3,3138.6 993.3,3135.6 994.3,3132.6 994.3,3129.6 990.3,3128.6 988.3,3127.6 985.3,3126.6 979.3,3126.6 976.3,3127.6 974.3,3130.6 971.3,3132.6 970.3,3135.6 970.3,3147.6 972.3" style="fill:none;stroke:#54ffec;stroke-width:2"/>
<polyline points="2996.6 1009.3,2998.6 1012.3,2999.6 1014.3,3000.6 1017.3,3001.6 1021.3,3001.6 1024.3,3002.6 1027.3,3003.6 1033.3,3003.6 1036.3,3003.6 1043.3" style="fill:none;stroke:#54ffec;stroke-width:2"/>
<polyline points="2988.6 1014.3,2998.6 1014.3,3006.6 1013.3,3010.6 1013.3,3018.6 1012.3,3022.6 1012.3,3028.6 1012.3" style="fill:none;stroke:#54ffec;stroke-width:2"/>
<polyline points="3021.6 1027.3,3034.6 1029.3,3039.6 1028.3,3037.6 1020.3,3036.6 1018.3,3034.6 1016.3,3031.6 1014.3,3027.6 1016.3,3027.6 1021.3,3029.6 1031.3,3030.6 1034.3,3033.6 1037.3,3038.6 1041.3,3040.6 1042.3,3043.6 1042.3,3048.6 1039.3,3051.6 1034.3" style="fill:none;stroke:#54ffec;stroke-width:2"/>
<polyline points="3063.6 1020.3,3066.6 1030.3,3067.6 1033.3,3069.6 1038.3,3070.6 1042.3,3070.6 1045.3" style="fill:none;stroke:#54ffec;stroke-width:2"/>
<polyline points="3049.6 1041.3,3059.6 1031.3,3067.6 1024.3,3069.6 1022.3,3071.6 1021.3,3073.6 1019.3,3076.6 1017.3" style="fill:none;stroke:#54ffec;stroke-width:2"/>
<polyline points="3088.6 1006.3,3089.6 1016.3,3089.6 1021.3,3090.6 1034.3,3090.6 1037.3,3091.6 1043.3,3091.6 1045.3" style="fill:none;stroke:#54ffec;stroke-width:2"/>
<polyline points="3081.6 1027.3,3096.6 1027.3,3103.6 1027.3,3112.6 1027.3,3120.6 1027.3" style="fill:none;stroke:#54ffec;stroke-width:2"/>
<polyline points="2400.6 728.3,2396.6 730.3,2393.6 731.3,2389.6 734.3,2384.6 736.3,2379.6 739.3,2369.6 744.3,2364.6 747.3,2360.6 749.3,2355.6 752.3,2350.6 754.3,2346.6 756.3,2341.6 758.3,2337.6 760.3,2332.6 762.3,2328.6 764.3,2323.6 765.3,2318.6 767.3,2314.6 769.3,2309.6 770.3,2306.6 772.3,2302.6 773.3,2299.6 774.3,2294.6 775.3,2292.6 776.3,2289.6 777.3,2285.6 779.3,2281.6 780.3,2277.6 782.3,2274.6 783.3,2272.6 784.3,2268.6 785.3,2266.6 786.3,2262.6 787.3,2260.6 788.3,2252.6 791.3,2249.6 792.3,2247.6 793.3,2243.6 794.3,2241.6 795.3,2238.6 796.3,2233.6 797.3,2231.6 798.3,2228.6 799.3,2223.6 800.3,2220.6 801.3,2218.6 802.3,2215.6 803.3,2216.6 800.3,2219.6 797.3,2220.6 795.3,2222.6 793.3,2224.6 792.3,2225.6 790.3,2227.6 788.3,2228.6 786.3,2230.6 784.3,2231.6 782.3,2233.6 781.3,2234.6 779.3,2236.6 777.3,2237.6 775.3,2236.6 777.3,2232.6 781.3,2230.6 784.3,2227.6 786.3,2224.6 790.3,2222.6 792.3,2217.6 798.3,2216.6 800.3,2213.6 803.3,2213.6 806.3,2218.6 807.3,2221.6 808.3,2226.6 808.3,2230.6 809.3,2235.6 810.3,2241.6 811.3,2246.6 812.3,2250.6 812.3,2254.6 813.3,2257.6 813.3,2260.6 814.3,2262.6 814.3" style="fill:none;stroke:#54ffec;stroke-width:2"/>
<polyline points="1586.6 878.3,1581.6 879.3,1576.6 881.3,1572.6 882.3,1570.6 883.3,1565.6 885.3,1561.6 886.3,1548.6 889.3,1544.6 890.3,1539.6 892.3,1534.6 893.3,1529.6 895.3,1525.6 896.3,1512.6 899.3,1509.6 899.3,1505.6 900.3,1492.6 903.3,1488.6 904.3,1483.6 905.3,1474.6 907.3,1470.6 907.3,1466.6 908.3,1459.6 909.3,1455.6 910.3,1452.6 910.3,1445.6 911.3,1441.6 911.3,1434.6 912.3,1430.6 912.3,1423.6 913.3,1419.6 913.3,1410.6 914.3,1405.6 914.3,1373.6 913.3,1369.6 913.3,1366.6 912.3,1361.6 912.3,1359.6 911.3,1356.6 911.3,1354.6 910.3,1351.6 910.3,1349.6 909.3,1345.6 908.3,1338.6 906.3,1334.6 905.3,1328.6 904.3,1325.6 903.3,1320.6 901.3,1317.6 901.3,1314.6 900.3,1312.6 899.3,1307.6 898.3,1304.6 897.3,1300.6 897.3,1298.6 895.3,1299.6 892.3,1300.6 890.3,1302.6 889.3,1305.6 884.3,1308.6 882.3,1309.6 880.3,1311.6 879.3,1312.6 877.3,1314.6 876.3,1316.6 874.3,1314.6 876.3,1311.6 880.3,1309.6 882.3,1308.6 884.3,1306.6 887.3,1305.6 889.3,1302.6 892.3,1301.6 894.3,1300.6 897.3,1298.6 900.3,1300.6 903.3,1303.6 903.3,1307.6 905.3,1315.6 907.3" style="fill:none;stroke:#54ffec;stroke-width:2"/>
<polyline points="1327.6 806.3,1329.6 808.3,1330.6 812.3,1332.6 817.3,1333.6 821.3,1336.6 819.3,1337.6 817.3,1338.6 814.3,1340.6 812.3,1341.6 810.3,1342.6 807.3,1343.6 809.3,1343.6 812.3,1344.6 819.3,1345.6 823.3,1347.6 821.3,1349.6 817.3,1352.6 810.3,1353.6 808.3,1354.6 804.3,1355.6 801.3,1357.6 801.3" style="fill:none;stroke:#54ffec;stroke-width:2"/>
<polyline points="1365.6 793.3,1365.6 800.3,1366.6 817.3,1367.6 814.3,1367.6 811.3,1369.6 808.3,1369.6 805.3,1370.6 802.3,1372.6 799.3,1376.6 799.3,1379.6 800.3" style="fill:none;stroke:#54ffec;stroke-width:2"/>
<polyline points="1393.6 791.3,1393.6 800.3,1393.6 803.3,1393.6 805.3,1393.6 808.3,1393.6 810.3" style="fill:none;stroke:#54ffec;stroke-width:2"/>
<polyline points="1396.6 766.3,1394.6 770.3,1394.6 772.3,1396.6 774.3" style="fill:none;stroke:#54ffec;stroke-width:2"/>
<polyline points="1396.6 766.3,1407.6 763.3,1406.6 767.3,1406.6 770.3,1405.6 777.3,1405.6 781.3,1405.6 802.3" style="fill:none;stroke:#54ffec;stroke-width:2"/>
<polyline points="1398.6 788.3,1404.6 788.3,1406.6 788.3,1409.6 788.3,1411.6 788.3,1416.6 787.3,1418.6 786.3" style="fill:none;stroke:#54ffec;stroke-width:2"/>
<polyline points="1414.6 791.3,1416.6 792.3,1423.6 787.3,1419.6 787.3,1417.6 789.3,1415.6 793.3,1414.6 796.3,1414.6 799.3,1415.6 807.3,1417.6 808.3,1420.6 810.3,1423.6 811.3,1426.6 811.3,1431.6 810.3,1436.6 806.3" style="fill:none;stroke:#54ffec;stroke-width:2"/>
<polyline points="1470.6 775.3,1469.6 772.3,1469.6 775.3,1470.6 805.3,1470.6 807.3,1470.6 809.3" style="fill:none;stroke:#54ffec;stroke-width:2"/>
<polyline points="1462.6 788.3,1468.6 786.3,1471.6 786.3,1474.6 785.3,1478.6 785.3,1482.6 785.3,1489.6 785.3" style="fill:none;stroke:#54ffec;stroke-width:2"/>
<polyline points="1490.6 794.3,1493.6 794.3,1497.6 786.3,1492.6 787.3,1490.6 790.3,1489.6 792.3,1489.6 795.3,1488.6 797.3,1488.6 801.3,1489.6 805.3,1491.6 807.3,1495.6 807.3,1498.6 806.3,1500.6 804.3,1503.6 800.3" style="fill:none;stroke:#54ffec;stroke-width:2"/>
<polyline points="1490.6 794.3,1490.6 795.8,1489.9 795.1" style="fill:none;stroke:#54ffec;stroke-width:2"/>
<polyline points="1504.6 790.3,1508.6 791.3,1514.6 795.3,1516.6 798.3,1517.6 800.3,1517.6 804.3" style="fill:none;stroke:#54ffec;stroke-width:2"/>
<polyline points="1501.6 806.3,1507.6 793.3,1508.6 790.3,1510.6 787.3,1511.6 785.3,1514.6 780.3,1516.6 778.3" style="fill:none;stroke:#54ffec;stroke-width:2"/>
<polyline points="1524.6 765.3,1524.6 769.3,1525.6 793.3,1525.6 796.3,1526.6 799.3,1526.6 801.3" style="fill:none;stroke:#54ffec;stroke-width:2"/>
<polyline points="1517.6 778.3,1519.6 778.3,1522.6 777.3,1526.6 777.3,1531.6 776.3,1540.6 776.3" style="fill:none;stroke:#54ffec;stroke-width:2"/>
<polyline points="1336.6 853.3,1338.6 854.3,1338.6 857.3,1339.6 865.3,1339.6 868.3,1339.6 879.3,1339.6 881.3" style="fill:none;stroke:#54ffec;stroke-width:2"/>
<polyline points="1329.6 864.3,1332.6 864.3,1346.6 863.3,1350.6 863.3,1358.6 862.3,1360.6 862.3" style="fill:none;stroke:#54ffec;stroke-width:2"/>
<polyline points="1363.6 869.3,1358.6 877.3,1357.6 879.3,1353.6 882.3,1349.6 883.3,1349.6 877.3,1351.6 871.3,1353.6 868.3,1357.6 863.3,1359.6 862.3,1361.6 865.3,1361.6 868.3,1360.6 876.3,1359.6 879.3,1357.6 881.3,1356.6 883.3,1355.6 876.3" style="fill:none;stroke:#54ffec;stroke-width:2"/>
<polyline points="1412.6 859.3,1406.6 858.3,1403.6 862.3,1402.6 867.3,1401.6 869.3,1401.6 872.3,1402.6 881.3,1405.6 881.3,1407.6 879.3,1410.6 873.3" style="fill:none;stroke:#54ffec;stroke-width:2"/>
<polyline points="1418.6 842.3,1418.6 848.3,1417.6 853.3,1417.6 857.3,1419.6 881.3,1420.6 876.3" style="fill:none;stroke:#54ffec;stroke-width:2"/>
<polyline points="1436.6 853.3,1436.6 862.3,1436.6 878.3" style="fill:none;stroke:#54ffec;stroke-width:2"/>
<polyline points="1434.6 842.3,1437.6 848.3,1439.6 849.3,1443.6 851.3" style="fill:none;stroke:#54ffec;stroke-width:2"/>
<polyline points="1457.6 869.3,1449.6 875.3,1446.6 875.3,1444.6 872.3,1443.6 867.3,1445.6 857.3,1446.6 855.3,1448.6 854.3,1450.6 852.3,1454.6 853.3,1455.6 855.3,1455.6 863.3,1453.6 872.3,1451.6 874.3,1448.6 876.3,1443.6 872.3,1442.6 866.3,1442.6 862.3,1443.6 871.3,1443.6 875.3,1444.6 878.3,1446.6 883.3,1449.6 879.3" style="fill:none;stroke:#54ffec;stroke-width:2"/>
<polyline points="1466.6 848.3,1465.6 851.3,1466.6 853.3,1466.6 856.3,1467.6 859.3,1468.6 865.3,1469.6 868.3,1470.6 872.3,1470.6 875.3,1471.6 884.3,1474.6 883.3,1475.6 881.3,1478.6 877.3,1479.6 875.3,1481.6 873.3,1482.6 870.3,1483.6 865.3,1482.6 862.3,1479.6 861.3,1475.6 862.3,1472.6 863.3,1469.6 866.3,1468.6 869.3,1472.6 870.3" style="fill:none;stroke:#54ffec;stroke-width:2"/>
<polyline points="1495.6 870.3,1492.6 879.3,1486.6 881.3,1486.6 878.3,1488.6 865.3,1490.6 863.3,1493.6 862.3,1496.6 862.3,1499.6 864.3,1501.6 866.3,1502.6 869.3,1502.6 872.3,1503.6 875.3,1503.6 879.3,1502.6 885.3,1501.6 887.3,1500.6 889.3" style="fill:none;stroke:#54ffec;stroke-width:2"/>
<polyline points="1515.6 869.3,1508.6 878.3,1505.6 876.3,1505.6 869.3,1507.6 863.3,1508.6 861.3,1510.6 859.3,1514.6 857.3,1515.6 862.3,1515.6 865.3,1514.6 876.3,1513.6 873.3,1513.6 870.3,1514.6 867.3,1515.6 861.3,1516.6 858.3,1517.6 856.3,1518.6 853.3,1519.6 857.3,1519.6 860.3,1520.6 865.3,1521.6 867.3,1522.6 871.3,1525.6 871.3" style="fill:none;stroke:#54ffec;stroke-width:2"/>
<polyline points="1527.6 845.3,1528.6 855.3,1528.6 858.3,1529.6 862.3,1530.6 869.3,1530.6 872.3,1531.6 874.3,1531.6 871.3,1532.6 868.3,1537.6 854.3,1538.6 852.3,1541.6 850.3,1548.6 850.3" style="fill:none;stroke:#54ffec;stroke-width:2"/>
<polyline points="1560.6 823.3,1560.6 835.3,1561.6 845.3,1562.6 852.3,1564.6 858.3,1564.6 863.3,1565.6 868.3,1565.6 872.3,1562.6 870.3,1560.6 867.3,1558.6 863.3,1558.6 859.3,1557.6 856.3,1557.6 853.3,1558.6 849.3,1560.6 848.3,1572.6 846.3" style="fill:none;stroke:#54ffec;stroke-width:2"/>
<polyline points="1660.6 733.3,1659.6 722.3,1657.6 718.3,1654.6 715.3,1649.6 710.3,1647.6 708.3" style="fill:none;stroke:#54ffec;stroke-width:2"/>
<polyline points="1635.6 686.3,1635.6 682.3,1632.6 678.3,1629.6 676.3,1622.6 669.3,1618.6 666.3" style="fill:none;stroke:#54ffec;stroke-width:2"/>
<polyline points="1568.6 632.3,1558.6 627.3,1548.6 622.3,1546.6 621.3,1545.6 620.3,1542.6 618.3,1541.6 617.3" style="fill:none;stroke:#54ffec;stroke-width:2"/>
<polyline points="1504.6 607.3,1494.6 604.3,1490.6 603.3,1485.6 602.3,1482.6 601.3,1479.6 601.3,1476.6 600.3,1474.6 599.3,1471.6 598.3,1469.6 597.3,1465.6 594.3,1462.6 591.3" style="fill:none;stroke:#54ffec;stroke-width:2"/>
<polyline points="1416.6 573.3,1405.6 571.3,1401.6 569.3,1394.6 567.3,1392.6 566.3,1387.6 565.3,1385.6 564.3" style="fill:none;stroke:#54ffec;stroke-width:2"/>
<polyline points="1341.6 553.3,1334.6 552.3,1332.6 551.3,1329.6 550.3,1321.6 547.3,1317.6 545.3,1314.6 542.3,1311.6 540.3" style="fill:none;stroke:#54ffec;stroke-width:2"/>
<polyline points="1262.6 526.3,1254.6 525.3,1247.6 523.3,1243.6 522.3,1237.6 520.3,1234.6 518.3,1231.6 517.3,1229.6 514.3,1226.6 513.3" style="fill:none;stroke:#54ffec;stroke-width:2"/>
<polyline points="1197.6 501.3,1184.6 499.3,1181.6 498.3,1177.6 497.3,1168.6 494.3,1166.6 492.3,1162.6 490.3" style="fill:none;stroke:#54ffec;stroke-width:2"/>
<polyline points="1134.6 478.3,1120.6 477.3,1110.6 476.3,1108.6 475.3,1104.6 474.3,1101.6 473.3,1097.6 471.3,1092.6 467.3,1090.6 464.3,1088.6 461.3" style="fill:none;stroke:#54ffec;stroke-width:2"/>
<polyline points="1062.6 461.3,1053.6 459.3,1050.6 457.3,1049.6 455.3" style="fill:none;stroke:#54ffec;stroke-width:2"/>
<polyline points="1039.6 476.3,1038.6 474.3,1037.6 471.3,1035.6 468.3,1034.6 464.3,1034.6 461.3,1033.6 458.3,1033.6 454.3,1037.6 454.3,1043.6 453.3,1047.6 453.3,1055.6 451.3,1066.6 447.3,1070.6 446.3,1072.6 445.3,1075.6 445.3,1079.6 445.3" style="fill:none;stroke:#54ffec;stroke-width:2"/>
<polyline points="1233.6 490.3,1238.6 491.3,1249.6 490.3,1251.6 489.3,1249.6 481.3,1247.6 480.3,1244.6 479.3,1241.6 479.3,1235.6 480.3,1234.6 482.3,1232.6 484.3,1231.6 487.3,1230.6 493.3,1230.6 496.3,1232.6 504.3,1234.6 506.3,1237.6 508.3,1241.6 508.3,1244.6 506.3" style="fill:none;stroke:#54ffec;stroke-width:2"/>
<polyline points="1258.6 481.3,1258.6 484.3,1259.6 486.3,1260.6 490.3,1262.6 495.3,1263.6 497.3,1265.6 500.3,1267.6 502.3" style="fill:none;stroke:#54ffec;stroke-width:2"/>
<polyline points="1250.6 508.3,1253.6 499.3,1256.6 496.3,1262.6 491.3,1265.6 488.3,1273.6 482.3,1274.6 481.3" style="fill:none;stroke:#54ffec;stroke-width:2"/>
<polyline points="1267.6 493.3,1270.6 496.3,1273.6 497.3,1274.6 491.3,1270.6 491.3,1265.6 492.3,1262.6 495.3,1257.6 501.3,1255.6 504.3,1253.6 510.3,1253.6 513.3,1255.6 517.3,1259.6 518.3,1263.6 518.3,1269.6 517.3,1273.6 514.3,1279.6 509.3" style="fill:none;stroke:#54ffec;stroke-width:2"/>
<polyline points="1296.6 500.3,1292.6 499.3,1290.6 501.3,1282.6 511.3,1280.6 513.3,1280.6 516.3,1281.6 522.3,1284.6 523.3,1291.6 520.3,1294.6 517.3,1297.6 512.3" style="fill:none;stroke:#54ffec;stroke-width:2"/>
<polyline points="1296.6 500.3,1296.6 501.8,1295.9 501.1" style="fill:none;stroke:#54ffec;stroke-width:2"/>
<polyline points="1298.6 502.3,1298.6 505.3,1300.6 515.3,1301.6 517.3,1306.6 515.3,1308.6 513.3,1312.6 508.3,1314.6 505.3,1317.6 499.3,1319.6 494.3,1320.6 492.3,1321.6 490.3" style="fill:none;stroke:#54ffec;stroke-width:2"/>
<polyline points="1332.6 473.3,1329.6 483.3,1328.6 488.3,1326.6 493.3,1325.6 498.3,1323.6 504.3,1322.6 509.3,1321.6 513.3,1320.6 515.3,1320.6 510.3,1320.6 501.3" style="fill:none;stroke:#54ffec;stroke-width:2"/>
<polyline points="1310.6 485.3,1319.6 488.3,1323.6 488.3,1327.6 489.3,1331.6 490.3,1335.6 491.3,1341.6 492.3" style="fill:none;stroke:#54ffec;stroke-width:2"/>
<polyline points="1333.6 507.3,1333.6 515.3,1332.6 526.3,1332.6 529.3,1332.6 531.3" style="fill:none;stroke:#54ffec;stroke-width:2"/>
<polyline points="1348.6 486.3,1349.6 492.3,1349.6 495.3,1351.6 499.3,1353.6 505.3" style="fill:none;stroke:#54ffec;stroke-width:2"/>
<polyline points="1353.6 531.3,1344.6 524.3,1343.6 520.3,1343.6 517.3,1344.6 515.3,1346.6 513.3,1349.6 511.3,1353.6 509.3,1361.6 506.3,1365.6 506.3,1371.6 508.3,1372.6 511.3,1372.6 515.3,1371.6 520.3,1368.6 525.3,1364.6 529.3,1361.6 533.3,1357.6 536.3,1354.6 538.3,1352.6 539.3,1350.6 537.3,1351.6 530.3" style="fill:none;stroke:#54ffec;stroke-width:2"/>
<polyline points="1372.6 508.3,1375.6 509.3,1376.6 513.3,1376.6 516.3,1375.6 529.3,1374.6 533.3,1373.6 535.3,1375.6 531.3,1378.6 527.3,1382.6 522.3,1387.6 518.3,1391.6 514.3,1395.6 512.3,1397.6 510.3,1400.6 511.3,1400.6 514.3,1399.6 518.3,1397.6 523.3,1394.6 529.3,1392.6 534.3,1388.6 543.3,1386.6 546.3,1385.6 548.3,1385.6 547.3" style="fill:none;stroke:#54ffec;stroke-width:2"/>
<polyline points="1447.6 525.3,1448.6 519.3,1446.6 507.3,1444.6 508.3,1442.6 510.3,1440.6 513.3,1437.6 517.3,1431.6 526.3,1429.6 530.3,1427.6 535.3,1426.6 539.3,1425.6 544.3,1424.6 547.3,1424.6 550.3,1423.6 555.3,1423.6 557.3" style="fill:none;stroke:#54ffec;stroke-width:2"/>
<polyline points="1423.6 528.3,1429.6 529.3,1432.6 529.3,1435.6 530.3,1438.6 531.3,1441.6 531.3,1446.6 531.3" style="fill:none;stroke:#54ffec;stroke-width:2"/>
<polyline points="1457.6 511.3,1454.6 521.3,1451.6 525.3,1449.6 530.3,1443.6 544.3,1441.6 548.3,1441.6 551.3,1440.6 553.3,1445.6 553.3" style="fill:none;stroke:#54ffec;stroke-width:2"/>
<polyline points="1466.6 561.3,1456.6 562.3,1455.6 560.3,1454.6 555.3,1456.6 543.3,1459.6 541.3,1461.6 539.3,1463.6 538.3,1467.6 537.3,1469.6 538.3,1469.6 541.3,1468.6 552.3,1467.6 556.3,1465.6 559.3,1464.6 561.3,1465.6 558.3,1480.6 539.3,1480.6 544.3,1479.6 557.3,1478.6 561.3,1477.6 566.3,1478.6 569.3,1482.6 567.3,1490.6 562.3,1494.6 558.3,1497.6 556.3,1500.6 553.3,1502.6 552.3,1503.6 556.3,1502.6 559.3,1501.6 565.3,1500.6 567.3,1504.6 565.3,1507.6 562.3,1510.6 560.3,1513.6 557.3,1518.6 553.3,1520.6 551.3,1521.6 549.3" style="fill:none;stroke:#54ffec;stroke-width:2"/>
<polyline points="829.6 476.3,828.6 478.3,825.6 483.3,824.6 486.3,823.6 488.3,822.6 491.3,820.6 496.3,819.6 500.3,818.6 503.3,818.6 509.3,817.6 512.3,817.6 515.3,816.6 525.3,816.6 528.3,815.6 532.3,815.6 536.3,814.6 551.3,814.6 554.3,814.6 660.3,815.6 674.3,815.6 679.3,816.6 686.3,817.6 688.3,818.6 692.3,819.6 695.3,820.6 699.3,821.6 701.3,822.6 705.3,823.6 708.3,820.6 707.3,818.6 706.3,816.6 704.3,813.6 702.3,811.6 699.3,808.6 697.3,806.6 695.3,804.6 692.3,803.6 690.3,801.6 689.3,800.6 687.3,798.6 684.3,800.6 688.3,803.6 692.3,805.6 695.3,807.6 697.3,809.6 700.3,811.6 702.3,815.6 705.3,817.6 707.3,820.6 708.3,822.6 706.3,823.6 704.3,825.6 701.3,828.6 697.3,829.6 695.3,831.6 693.3,832.6 691.3,835.6 686.3,836.6 684.3,837.6 679.3,839.6 675.3" style="fill:none;stroke:#5784ff;stroke-width:2"/>
<polyline points="869.6 578.3,858.6 579.3,856.6 580.3,853.6 583.3,850.6 587.3,848.6 590.3,847.6 595.3,847.6 599.3,848.6 612.3,851.6 613.3,855.6 613.3,857.6 612.3,861.6 607.3,863.6 605.3" style="fill:none;stroke:#5784ff;stroke-width:2"/>
<polyline points="878.6 563.3,878.6 566.3,877.6 569.3,876.6 577.3,875.6 581.3,875.6 586.3,875.6 612.3" style="fill:none;stroke:#5784ff;stroke-width:2"/>
<polyline points="865.6 576.3,868.6 581.3,873.6 583.3,876.6 583.3,881.6 584.3,884.6 584.3" style="fill:none;stroke:#5784ff;stroke-width:2"/>
<polyline points="884.6 589.3,883.6 597.3,883.6 600.3,882.6 604.3,882.6 608.3,881.6 618.3,881.6 612.3,882.6 609.3,883.6 605.3,884.6 602.3,885.6 598.3,887.6 596.3,888.6 594.3,892.6 589.3,895.6 589.3" style="fill:none;stroke:#5784ff;stroke-width:2"/>
<polyline points="910.6 565.3,909.6 573.3,908.6 577.3,908.6 581.3,907.6 586.3,906.6 597.3,905.6 603.3,905.6 609.3,906.6 625.3" style="fill:none;stroke:#5784ff;stroke-width:2"/>
<polyline points="933.6 589.3,933.6 594.3,932.6 610.3,931.6 613.3,931.6 616.3,930.6 618.3,930.6 614.3" style="fill:none;stroke:#5784ff;stroke-width:2"/>
<polyline points="924.6 594.3,927.6 599.3,930.6 599.3,936.6 600.3,940.6 600.3,947.6 600.3,949.6 600.3" style="fill:none;stroke:#5784ff;stroke-width:2"/>
<polyline points="954.6 590.3,954.6 596.3,955.6 599.3,956.6 607.3,958.6 611.3,959.6 614.3,960.6 616.3,963.6 617.3,966.6 615.3,968.6 612.3,971.6 607.3,974.6 603.3,978.6 598.3,980.6 593.3,982.6 590.3,985.6 584.3" style="fill:none;stroke:#5784ff;stroke-width:2"/>
<polyline points="868.6 812.3,872.6 817.3,874.6 820.3,877.6 822.3,878.6 824.3,880.6 825.3,882.6 827.3,884.6 828.3,886.6 830.3,888.6 831.3,893.6 834.3,895.6 835.3,898.6 837.3,901.6 838.3,903.6 840.3,906.6 842.3,909.6 843.3,912.6 845.3,915.6 846.3,917.6 847.3,920.6 849.3,925.6 851.3,928.6 852.3,930.6 853.3,933.6 854.3,938.6 856.3,941.6 857.3,946.6 858.3,949.6 859.3,951.6 860.3,954.6 861.3,956.6 862.3,959.6 863.3,967.6 866.3,969.6 867.3,973.6 868.3,975.6 869.3,978.6 870.3,982.6 872.3,986.6 873.3,989.6 874.3,991.6 875.3,995.6 876.3,997.6 877.3,1001.6 878.3,1004.6 878.3,1006.6 879.3,1009.6 879.3,1013.6 880.3,1016.6 881.3,1020.6 881.3,1023.6 882.3,1027.6 883.3,1031.6 883.3,1037.6 884.3,1040.6 884.3,1045.6 885.3,1049.6 885.3,1054.6 886.3,1058.6 886.3,1064.6 887.3,1068.6 887.3,1067.6 884.3,1066.6 882.3,1061.6 874.3,1060.6 872.3,1058.6 867.3,1057.6 865.3,1058.6 867.3,1060.6 868.3,1062.6 870.3,1064.6 871.3,1066.6 873.3,1067.6 875.3,1069.6 876.3,1071.6 879.3,1073.6 881.3,1073.6 885.3,1071.6 888.3,1069.6 890.3,1068.6 892.3,1066.6 893.3,1064.6 895.3,1063.6 898.3,1060.6 899.3" style="fill:none;stroke:#c86cff;stroke-width:2"/>
<polyline points="915.6 825.3,913.6 821.3,913.6 816.3,912.6 810.3,912.6 807.3,911.6 801.3,911.6 798.3,910.6 795.3,910.6 791.3,911.6 780.3,915.6 780.3,922.6 781.3,925.6 782.3,927.6 784.3,929.6 785.3,931.6 787.3,933.6 788.3,934.6 792.3,934.6 797.3,933.6 799.3,931.6 800.3,929.6 802.3,926.6 803.3,924.6 804.3,920.6 805.3,913.6 806.3,911.6 805.3,913.6 801.3" style="fill:none;stroke:#c86cff;stroke-width:2"/>
<polyline points="944.6 823.3,938.6 824.3,933.6 815.3,933.6 812.3,935.6 809.3,936.6 807.3,939.6 806.3,942.6 806.3,944.6 808.3,945.6 812.3,945.6 817.3,944.6 823.3,942.6 825.3,942.6 820.3,943.6 812.3,944.6 809.3,945.6 805.3,946.6 803.3,947.6 806.3,948.6 812.3,949.6 815.3,952.6 823.3,954.6 825.3,957.6 827.3,961.6 827.3,964.6 825.3,969.6 821.3" style="fill:none;stroke:#c86cff;stroke-width:2"/>
<polyline points="976.6 803.3,968.6 806.3,966.6 807.3,964.6 813.3,966.6 814.3,969.6 814.3,972.6 816.3,974.6 817.3,975.6 819.3,976.6 822.3,976.6 826.3,973.6 833.3,970.6 836.3,967.6 838.3,966.6 834.3,966.6 831.3,966.6 828.3" style="fill:none;stroke:#c86cff;stroke-width:2"/>
<polyline points="984.6 790.3,984.6 793.3,985.6 800.3,985.6 804.3,985.6 838.3" style="fill:none;stroke:#c86cff;stroke-width:2"/>
<polyline points="975.6 804.3,982.6 811.3,985.6 811.3,989.6 812.3,992.6 812.3,996.6 812.3,999.6 812.3" style="fill:none;stroke:#c86cff;stroke-width:2"/>
<polyline points="992.6 826.3,995.6 827.3,998.6 827.3,1003.6 826.3,1006.6 824.3,1010.6 821.3,1011.6 819.3,1010.6 816.3,1008.6 815.3,1003.6 815.3,1001.6 818.3,998.6 821.3,995.6 829.3,995.6 833.3,997.6 841.3,1000.6 843.3,1005.6 845.3,1011.6 845.3,1020.6 841.3" style="fill:none;stroke:#c86cff;stroke-width:2"/>
</svg>